<svg class="img-fluid" id="outputsvg"
    xmlns="http://www.w3.org/2000/svg" style="transform: matrix(1, 0, 0, 1, -8.70115, -2.20167); transform-origin: 50% 50%; cursor: move; max-height: 350.5px; transition: none 0s ease 0s;" width="250" height="260" viewBox="0 0 2500 2600">
    <defs>
        <linearGradient id="lg2Pf1g4NaZu6ZWp" gradientUnits="userSpaceOnUse" x1="50%" y1="8%" x2="55.1%" y2="59%">
            <stop offset="0%" style="stop-color:rgb(0,31,63);"></stop>
            <stop offset="5%" style="stop-color:rgb(0,35,75);"></stop>
            <stop offset="10%" style="stop-color:rgb(0,39,87);"></stop>
            <stop offset="15%" style="stop-color:rgb(0,43,99);"></stop>
            <stop offset="20%" style="stop-color:rgb(0,47,111);"></stop>
            <stop offset="30%" style="stop-color:rgb(0,47,111);"></stop>
            <stop offset="40%" style="stop-color:rgb(0,55,135);"></stop>
            <stop offset="48%" style="stop-color:rgb(0,59,147);"></stop>
            <stop offset="57%" style="stop-color:rgb(0,63,159);"></stop>
            <stop offset="65%" style="stop-color:rgb(0,67,171);"></stop>
            <stop offset="70%" style="stop-color:rgb(0,71,183);"></stop>
            <stop offset="75%" style="stop-color:rgb(0,75,195);"></stop>
            <stop offset="80%" style="stop-color:rgb(0,79,207);"></stop>
            <stop offset="85%" style="stop-color:rgb(0,83,219);"></stop>
            <stop offset="95%" style="stop-color:rgb(0,91,243);"></stop>
            <stop offset="100%" style="stop-color:rgb(0,95,255);"></stop>
        </linearGradient>
    </defs>
    <g id="l7N1B9YzG7dWFFtgNL2RzjR" fill="rgb(255,255,255)" style="transform: none;">
        <g style="transform: none;"></g>
    </g>
    <g id="l3fe75u4osvRfBBmeQ4IfRS" fill="rgb(0,93,249)" style="transform: none;">
        <g style="transform: none;">
            <path id="p1AkCptQnS" d="M1680 1326 c0 -33 2 -36 31 -36 l30 0 -21 30 c-31 44 -40 45 -40 6z"></path>
            <path id="psqSvyv1D" d="M663 1109 c-12 -4 -27 -17 -33 -28 -10 -19 -8 -21 20 -21 31 0 45 16 38 43 -2 11 -9 12 -25 6z" fill="url(#lg2Pf1g4NaZu6ZWp)"></path>
            <path id="pgVNJSs07" d="M1920 1081 c0 -26 4 -31 25 -31 35 0 32 18 -7 49 -16 12 -18 11 -18 -18z"></path>
            <path id="psh5i5Qo5" d="M1150 1035 c0 -19 -4 -35 -10 -35 -5 0 -10 -7 -10 -15 0 -9 -9 -15 -25 -15 -18 0 -25 -5 -25 -20 0 -25 22 -26 61 -3 32 19 52 64 43 99 -10 38 -34 30 -34 -11z" fill="url(#lg2Pf1g4NaZu6ZWp)"></path>
            <path id="puaPhJ81X" d="M617 990 c3 -11 14 -25 24 -31 17 -8 19 -6 19 21 0 25 -4 30 -24 30 -19 0 -23 -4 -19 -20z"></path>
            <path id="pUctdjkMu" d="M807 853 c-4 -3 -7 -12 -7 -20 0 -10 20 -13 80 -13 79 0 98 9 61 30 -22 11 -124 14 -134 3z" fill="url(#lg2Pf1g4NaZu6ZWp)"></path>
            <path id="pdRGoulJi" d="M1578 771 c-15 -16 -40 -37 -57 -47 -40 -24 -39 -34 4 -34 28 0 35 4 35 20 0 15 7 20 25 20 22 0 25 4 25 35 0 19 -2 35 -3 35 -2 0 -15 -13 -29 -29z"></path>
        </g>
    </g>
    <g id="l1VXooYrZcAzKf0qOWWbvg8" fill="rgb(0,81,213)" style="transform: none;">
        <g style="transform: none;">
            <path id="pCqktTOk9" d="M936 1244 c-10 -27 -7 -54 8 -54 8 0 23 16 35 35 l20 35 -28 0 c-17 0 -31 -6 -35 -16z"></path>
            <path id="pLIMytjiE" d="M1750 1196 c0 -32 3 -36 25 -36 24 0 25 1 12 32 -19 46 -37 48 -37 4z"></path>
            <path id="pND56lTnc" d="M1620 1204 c0 -12 34 -64 42 -64 4 0 8 16 8 35 0 31 -3 35 -25 35 -14 0 -25 -3 -25 -6z"></path>
            <path id="pyMzdrLWG" d="M642 1090 c-29 -27 -28 -40 3 -40 21 0 25 5 25 30 0 36 0 36 -28 10z" fill="url(#lg2Pf1g4NaZu6ZWp)"></path>
            <path id="pROJXlWMB" d="M1120 1085 c0 -14 7 -28 15 -31 9 -4 15 -19 15 -35 0 -18 5 -29 14 -29 30 0 22 83 -11 108 -25 18 -33 15 -33 -13z" fill="url(#lg2Pf1g4NaZu6ZWp)"></path>
            <path id="pLUy6C2BV" d="M1400 1028 c0 -30 13 -58 26 -58 9 0 14 12 14 35 0 28 -4 35 -20 35 -11 0 -20 -6 -20 -12z"></path>
            <path id="pSpKYyJHh" d="M1100 956 c0 -19 4 -23 19 -19 11 3 27 14 37 24 17 18 16 19 -19 19 -32 0 -37 -3 -37 -24z" fill="url(#lg2Pf1g4NaZu6ZWp)"></path>
            <path id="pEQqDoslj" d="M660 956 c0 -13 28 -26 58 -26 6 0 12 9 12 20 0 16 -7 20 -35 20 -23 0 -35 -5 -35 -14z" fill="url(#lg2Pf1g4NaZu6ZWp)"></path>
            <path id="pTGXshjGo" d="M1870 950 c0 -22 20 -26 51 -10 30 16 23 30 -16 30 -28 0 -35 -4 -35 -20z"></path>
            <path id="pPEIPK501" d="M813 853 c-7 -2 -13 -11 -13 -19 0 -11 16 -14 65 -14 51 0 65 3 65 15 0 8 -3 15 -7 16 -49 5 -100 6 -110 2z" fill="url(#lg2Pf1g4NaZu6ZWp)"></path>
            <path id="pCgOqRnZn" d="M1615 820 c-14 -23 -35 -50 -45 -60 -20 -20 -20 -20 15 -20 32 0 35 2 35 30 0 23 4 30 20 30 11 0 20 5 20 10 0 6 16 10 35 10 33 0 35 -2 35 -35 0 -48 14 -44 40 11 26 58 20 64 -67 64 -62 0 -63 0 -88 -40z" fill="url(#lg2Pf1g4NaZu6ZWp)"></path>
            <path id="pNES2n48e" d="M850 740 c31 -44 40 -45 40 -6 0 33 -2 36 -31 36 l-30 0 21 -30z"></path>
            <path id="pNxiJgEG0" d="M1632 687 c-12 -13 -22 -36 -22 -51 l0 -27 30 21 c16 11 39 34 50 50 l21 30 -29 0 c-17 0 -37 -9 -50 -23z" fill="url(#lg2Pf1g4NaZu6ZWp)"></path>
            <path id="pLFdCzd4z" d="M920 655 c0 -3 27 -25 60 -49 88 -65 272 -116 363 -101 32 6 38 11 35 28 -3 21 -10 22 -113 28 -76 5 -127 13 -165 28 -30 11 -67 21 -82 21 -23 0 -28 4 -28 25 0 22 -4 25 -35 25 -19 0 -35 -2 -35 -5z" fill="url(#lg2Pf1g4NaZu6ZWp)"></path>
        </g>
    </g>
    <g id="l2iBEDotBe6kfa5M0Vy40bQ" fill="rgb(0,71,183)" style="transform: none;">
        <g style="transform: none;">
            <path id="p16NZzsXeE" d="M1188 1533 c-33 -8 -20 -33 17 -33 28 0 35 4 35 20 0 20 -14 23 -52 13z"></path>
            <path id="pmJZVxoVf" d="M843 1288 c-48 -80 -50 -88 -19 -88 23 0 26 4 26 35 0 28 4 35 20 35 16 0 20 7 20 35 0 19 -4 35 -8 35 -4 0 -22 -24 -39 -52z"></path>
            <path id="pJxw2lmqQ" d="M1700 1298 c0 -34 3 -38 25 -38 31 0 32 11 0 47 l-24 28 -1 -37z"></path>
            <path id="p1EoquIVPf" d="M920 1210 c0 -24 35 -28 44 -4 9 23 8 24 -19 24 -18 0 -25 -5 -25 -20z"></path>
            <path id="pOUVs7cqY" d="M1760 1166 c0 -32 3 -36 25 -36 24 0 25 1 12 32 -19 46 -37 48 -37 4z"></path>
            <path id="pGZdR9XSI" d="M619 1056 c-7 -14 -9 -36 -5 -50 13 -52 86 -91 86 -46 0 11 -5 20 -11 20 -21 0 -39 29 -39 64 0 41 -15 47 -31 12z" fill="url(#lg2Pf1g4NaZu6ZWp)"></path>
            <path id="pyog3QXGq" d="M1406 1056 c-8 -32 3 -83 20 -97 22 -18 26 -6 18 60 -7 63 -26 82 -38 37z" fill="url(#lg2Pf1g4NaZu6ZWp)"></path>
            <path id="p7Lqink66" d="M1070 950 c0 -22 20 -26 51 -10 30 16 23 30 -16 30 -28 0 -35 -4 -35 -20z" fill="url(#lg2Pf1g4NaZu6ZWp)"></path>
            <path id="pwvs5K7Xs" d="M1658 853 c-10 -2 -18 -11 -18 -19 0 -11 15 -14 60 -14 44 0 60 4 60 14 0 21 -55 32 -102 19z" fill="url(#lg2Pf1g4NaZu6ZWp)"></path>
            <path id="p15NZ3R0dD" d="M983 773 c-7 -3 -13 -16 -13 -29 0 -24 -2 -24 -57 -18 l-56 7 27 -36 c83 -109 209 -167 362 -167 48 0 93 -5 103 -12 22 -14 114 8 189 44 40 19 43 23 40 57 -3 34 -5 36 -42 39 -24 2 -42 -2 -47 -10 -6 -9 -9 -4 -9 15 0 15 -1 27 -3 27 -1 0 -30 -9 -62 -21 -90 -32 -208 -24 -292 19 -34 18 -77 45 -95 60 -18 16 -39 27 -45 25z" fill="url(#lg2Pf1g4NaZu6ZWp)"></path>
            <path id="pMAnIHJ3y" d="M1680 714 c0 -39 9 -38 40 6 l21 30 -30 0 c-29 0 -31 -3 -31 -36z" fill="url(#lg2Pf1g4NaZu6ZWp)"></path>
        </g>
    </g>
    <g id="l6nOAqu54yKWQrmNaE2mrA8" fill="rgb(0,63,159)" style="transform: none;">
        <g style="transform: none;">
            <path id="ptk1qOrbT" d="M836 1281 c-3 -4 -10 -20 -15 -35 -10 -24 -8 -26 14 -26 22 0 25 4 25 35 0 33 -12 46 -24 26z"></path>
            <path id="p4pTUoxPx" d="M960 1253 l0 -37 35 34 c19 19 35 35 35 37 0 2 -16 3 -35 3 -34 0 -35 -1 -35 -37z"></path>
            <path id="pQT4SosUu" d="M933 832 c-6 -4 -13 -23 -15 -42 -3 -34 -4 -35 -41 -32 l-39 4 18 -27 c24 -37 44 -45 113 -45 61 0 76 10 44 29 -16 9 -16 12 -3 20 12 9 11 13 -7 33 -11 13 -26 33 -32 46 -12 23 -19 26 -38 14z" fill="url(#lg2Pf1g4NaZu6ZWp)"></path>
            <path id="p1FCRkHUPT" d="M1710 753 l1 -38 24 28 c32 36 31 47 0 47 -22 0 -25 -4 -25 -37z" fill="url(#lg2Pf1g4NaZu6ZWp)"></path>
            <path id="p1F3sDPkwH" d="M1498 708 c-27 -17 -48 -36 -48 -43 0 -20 -80 -41 -91 -24 -4 8 -11 10 -15 6 -15 -15 15 -29 61 -29 42 0 48 -2 56 -27 15 -42 72 -41 130 1 31 23 39 33 28 36 -10 2 -19 12 -22 23 -3 11 -15 23 -26 26 -13 3 -21 15 -23 32 l-3 28 -47 -29z" fill="url(#lg2Pf1g4NaZu6ZWp)"></path>
        </g>
    </g>
    <g id="l32mhhElBXrEYMsuqMY6ra7" fill="rgb(0,57,141)" style="transform: none;">
        <g style="transform: none;">
            <path id="pgIvdkc1Q" d="M920 1095 c0 -22 4 -25 35 -25 31 0 35 3 35 25 0 22 -4 25 -35 25 -31 0 -35 -3 -35 -25z" fill="url(#lg2Pf1g4NaZu6ZWp)"></path>
            <path id="p1B4BhZQSg" d="M1020 1096 c0 -28 21 -36 98 -36 58 0 64 9 26 39 -19 15 -41 21 -75 21 -45 0 -49 -2 -49 -24z" fill="url(#lg2Pf1g4NaZu6ZWp)"></path>
            <path id="pzz9DlRV4" d="M1436 1099 c-31 -25 -35 -59 -6 -59 11 0 20 5 20 10 0 6 5 10 11 10 16 0 39 26 39 44 0 22 -32 20 -64 -5z" fill="url(#lg2Pf1g4NaZu6ZWp)"></path>
            <path id="pegjBtVvS" d="M632 979 c8 -25 71 -49 131 -49 49 0 57 3 57 19 0 20 -19 26 -134 37 -47 5 -58 4 -54 -7z" fill="url(#lg2Pf1g4NaZu6ZWp)"></path>
            <path id="p1Ew5qIbAq" d="M1085 980 c-11 -5 -55 -9 -97 -9 -71 -1 -78 -3 -78 -21 0 -19 7 -20 90 -20 93 0 143 13 169 43 12 15 10 17 -25 16 -22 0 -48 -4 -59 -9z" fill="url(#lg2Pf1g4NaZu6ZWp)"></path>
            <path id="pW5RKM4Tv" d="M1420 975 c0 -23 54 -45 110 -45 41 0 50 3 50 18 0 23 -51 42 -113 42 -35 0 -47 -4 -47 -15z" fill="url(#lg2Pf1g4NaZu6ZWp)"></path>
            <path id="pvwcpOcWL" d="M800 840 c0 -34 53 -108 87 -121 30 -11 97 16 89 37 -3 7 -1 14 4 14 6 0 10 5 10 10 0 6 -10 10 -22 10 -19 0 -20 2 -8 10 12 7 12 13 4 27 -9 14 -27 19 -88 21 -50 2 -76 -1 -76 -8z" fill="url(#lg2Pf1g4NaZu6ZWp)"></path>
            <path id="p5fVO5iXI" d="M1610 809 c-14 -22 -40 -51 -57 -65 -18 -14 -33 -32 -33 -40 0 -10 -8 -14 -22 -12 -16 2 -23 -4 -29 -24 -9 -35 0 -41 40 -27 36 13 61 -1 61 -31 0 -31 35 -12 97 54 l58 61 -32 3 c-20 2 -37 11 -43 23 -9 16 -7 19 15 19 23 0 25 4 25 40 0 37 -2 40 -28 40 -21 0 -33 -9 -52 -41z" fill="url(#lg2Pf1g4NaZu6ZWp)"></path>
            <path id="plDO3K9Li" d="M1750 835 c0 -8 -9 -15 -20 -15 -16 0 -20 -7 -20 -35 0 -59 35 -44 65 28 15 35 14 37 -5 37 -11 0 -20 -7 -20 -15z" fill="url(#lg2Pf1g4NaZu6ZWp)"></path>
        </g>
    </g>
    <g id="l7M3qmZI8cNp6rScPGLKtc8" fill="rgb(0,45,105)" style="transform: none;">
        <g style="transform: none;">
            <path id="plvx8G2Yy" d="M880 1273 c0 -50 12 -73 38 -80 20 -5 30 0 49 23 12 16 23 41 23 57 0 26 -2 27 -55 27 -53 0 -55 -1 -55 -27z" fill="url(#lg2Pf1g4NaZu6ZWp)"></path>
            <path id="pz3s3sqG4" d="M1733 1243 c-13 -5 -18 -60 -7 -87 4 -10 18 -16 41 -16 38 0 38 3 7 78 -13 32 -18 35 -41 25z" fill="url(#lg2Pf1g4NaZu6ZWp)"></path>
            <path id="pK1Gni9hy" d="M1652 1143 c2 -13 -5 -19 -26 -21 -25 -3 -28 -7 -24 -33 3 -20 0 -29 -9 -29 -8 0 -13 12 -13 30 0 30 -1 30 -54 30 -36 0 -60 -5 -70 -15 -8 -9 -19 -15 -23 -14 -4 0 -14 -14 -21 -33 -12 -30 -11 -40 2 -71 14 -34 16 -36 52 -30 26 4 35 3 30 -5 -8 -13 -15 -12 199 -18 184 -6 235 -1 235 21 0 8 -7 15 -15 15 -8 0 -15 7 -15 15 0 12 -16 15 -85 15 l-85 0 0 35 c0 28 -4 35 -20 35 -17 0 -20 7 -20 45 0 39 -3 45 -20 45 -14 0 -20 -6 -18 -17z" fill="url(#lg2Pf1g4NaZu6ZWp)"></path>
            <path id="pKvC4Fxjg" d="M648 1091 c-56 -50 -38 -131 29 -136 15 -1 52 -7 81 -13 77 -17 286 -13 347 5 68 21 79 32 65 68 -8 21 -8 30 2 36 9 6 8 12 -5 26 -12 14 -26 18 -52 15 -26 -3 -36 0 -41 13 -5 13 -9 14 -15 3 -7 -10 -9 -10 -9 0 0 8 -16 12 -44 12 -26 0 -46 -5 -49 -12 -4 -10 -6 -10 -6 0 -1 9 -35 12 -136 12 -134 0 -135 0 -167 -29z" fill="url(#lg2Pf1g4NaZu6ZWp)"></path>
            <path id="p11uClaqft" d="M840 837 c0 -7 8 -17 18 -23 14 -9 23 -8 40 6 31 25 28 30 -18 30 -25 0 -40 -5 -40 -13z" fill="url(#lg2Pf1g4NaZu6ZWp)"></path>
            <path id="pssecdIj5" d="M1660 823 c0 -25 -1 -26 -20 -8 -19 17 -20 17 -34 -15 -13 -32 -12 -37 12 -74 14 -23 25 -49 24 -58 0 -10 3 -18 7 -18 13 0 42 36 34 43 -3 4 0 7 8 7 20 1 73 77 57 83 -8 4 -7 6 3 6 17 1 29 21 29 47 0 10 -15 14 -60 14 -58 0 -60 -1 -60 -27z" fill="url(#lg2Pf1g4NaZu6ZWp)"></path>
        </g>
    </g>
    <g id="l5vQvUpizb0IggkeUinbA4D" fill="rgb(0,39,87)" style="transform: none;">
        <g style="transform: none;">
            <path id="pi9qw2QZM" d="M859 1283 c-18 -3 -29 -13 -37 -37 -20 -54 -18 -56 57 -56 65 0 71 2 90 29 12 16 21 39 21 50 0 19 -5 21 -52 20 -29 -1 -65 -4 -79 -6z m96 -30 c-1 -18 -6 -23 -27 -23 -6 0 -8 3 -5 7 4 3 2 12 -4 20 -9 10 -6 13 13 13 17 0 24 -5 23 -17z" fill="url(#lg2Pf1g4NaZu6ZWp)"></path>
            <path id="ptDwgLTGH" d="M674 1112 c-6 -4 -13 -17 -16 -29 -5 -17 -2 -23 11 -23 22 0 41 19 41 42 0 19 -17 23 -36 10z" fill="url(#lg2Pf1g4NaZu6ZWp)"></path>
            <path id="pfFqODNnV" d="M1456 1093 c-6 -14 28 -28 44 -18 5 3 10 13 10 20 0 18 -47 16 -54 -2z" fill="url(#lg2Pf1g4NaZu6ZWp)"></path>
            <path id="pQWihowsu" d="M923 1092 c-50 -2 -61 -6 -56 -18 3 -8 0 -20 -6 -28 -14 -17 13 -26 79 -26 46 0 96 -19 55 -21 l-20 0 20 -9 c28 -12 27 -13 59 15 20 17 36 23 50 19 25 -8 37 -24 31 -42 -3 -9 2 -12 18 -10 17 2 23 11 25 34 4 42 -38 78 -80 69 -17 -4 -28 -2 -28 4 0 6 -5 11 -11 11 -5 0 -7 -4 -4 -10 3 -5 -1 -10 -9 -10 -8 0 -19 6 -23 13 -9 13 -10 13 -100 9z" fill="url(#lg2Pf1g4NaZu6ZWp)"></path>
            <path id="p15SNbW7TS" d="M1540 1090 c-11 -7 -11 -10 -2 -10 9 0 10 -5 3 -19 -13 -24 -5 -31 36 -31 23 0 33 -5 33 -15 0 -17 -35 -21 -45 -5 -5 8 -11 8 -20 0 -15 -12 -31 3 -20 19 10 17 -12 21 -31 6 -18 -15 -18 -16 6 -36 22 -19 33 -21 104 -15 66 5 82 3 101 -12 21 -17 21 -19 7 -30 -14 -9 -10 -11 24 -11 46 -1 59 6 43 26 -9 10 -5 13 20 13 21 0 31 -5 31 -16 0 -8 -4 -13 -9 -9 -5 3 -12 2 -15 -3 -6 -11 16 -13 72 -6 40 5 42 7 42 40 l0 34 -89 0 c-85 0 -90 1 -93 23 -3 20 -9 22 -70 25 -56 2 -68 6 -73 22 -7 21 -31 26 -55 10z" fill="url(#lg2Pf1g4NaZu6ZWp)"></path>
            <path id="pegVcIOSt" d="M1670 835 c0 -9 9 -14 24 -13 15 1 22 7 19 15 -7 18 -43 16 -43 -2z" fill="url(#lg2Pf1g4NaZu6ZWp)"></path>
            <path id="p1EGOcrxes" d="M1718 769 c-10 -5 -18 -17 -18 -24 0 -22 28 -18 40 4 17 33 10 39 -22 20z" fill="url(#lg2Pf1g4NaZu6ZWp)"></path>
        </g>
    </g>
    <g id="l4dmatsh2nI30AGI8j7cp9E" fill="rgb(0,33,69)" style="transform: none;">
        <g style="transform: none;">
            <path id="pl7d79ehR" d="M1163 1526 c-145 -35 -268 -138 -345 -286 -10 -19 -18 -38 -18 -42 0 -13 148 -10 156 3 4 8 -5 9 -32 5 -40 -6 -77 8 -82 32 -2 14 24 17 33 2 8 -13 35 -1 35 16 0 8 10 14 25 14 18 0 25 -5 25 -20 0 -28 10 -25 55 21 22 22 69 54 105 72 61 30 71 32 175 32 95 0 116 -3 158 -24 96 -47 198 -165 202 -233 2 -30 -12 -38 -21 -13 -4 10 -20 15 -51 15 -36 0 -44 -3 -39 -15 3 -8 1 -15 -4 -15 -6 0 -1 -9 10 -20 12 -12 18 -24 16 -29 -9 -13 83 -22 106 -10 23 12 27 10 33 -21 7 -34 18 -38 106 -35 63 2 79 0 79 -11 0 -10 -7 -13 -23 -9 -16 4 -28 0 -38 -11 -13 -16 -10 -17 40 -10 67 9 89 20 101 52 17 43 11 65 -24 100 -29 29 -41 34 -80 34 -38 0 -48 4 -62 25 -9 14 -24 25 -33 25 -14 0 -14 2 -1 10 13 8 12 10 -2 10 -21 0 -24 16 -5 23 20 7 -31 93 -94 162 -69 73 -148 122 -237 146 -76 22 -191 24 -269 5z" fill="url(#lg2Pf1g4NaZu6ZWp)"></path>
            <path id="p7vPEwtjf" d="M673 1113 c-7 -2 -13 -11 -13 -20 0 -21 44 -13 48 10 3 17 -10 21 -35 10z" fill="url(#lg2Pf1g4NaZu6ZWp)"></path>
            <path id="pGFMw6y9c" d="M1480 1109 c0 -5 -4 -8 -9 -5 -5 3 -11 0 -14 -8 -6 -15 19 -26 41 -19 17 6 15 43 -3 43 -8 0 -15 -5 -15 -11z" fill="url(#lg2Pf1g4NaZu6ZWp)"></path>
            <path id="p1FAFtqOjS" d="M930 1089 l-55 -6 73 -1 c39 -1 72 2 72 6 0 9 -15 9 -90 1z" fill="url(#lg2Pf1g4NaZu6ZWp)"></path>
            <path id="pEqDp9I9N" d="M1128 1082 c-34 -4 -36 -27 -5 -53 34 -28 57 -25 57 10 0 35 -16 48 -52 43z" fill="url(#lg2Pf1g4NaZu6ZWp)"></path>
            <path id="p10b0VLsLK" d="M875 1060 c3 -5 1 -10 -5 -10 -6 0 -8 -4 -5 -10 3 -5 39 -10 78 -10 40 0 79 -4 87 -9 19 -13 33 -3 18 12 -27 25 -67 40 -80 30 -8 -6 -21 -7 -33 -2 -29 11 -67 11 -60 -1z" fill="url(#lg2Pf1g4NaZu6ZWp)"></path>
            <path id="p1Fb5wUfAR" d="M1143 984 c0 -16 23 -19 31 -5 3 5 -2 11 -12 13 -11 3 -19 0 -19 -8z" fill="url(#lg2Pf1g4NaZu6ZWp)"></path>
            <path id="pnKsqp5sZ" d="M1708 938 c-8 -4 4 -8 30 -8 23 0 42 2 42 4 0 8 -60 12 -72 4z" fill="url(#lg2Pf1g4NaZu6ZWp)"></path>
            <path id="p11NTHg88C" d="M1670 835 c0 -8 7 -15 15 -15 8 0 15 7 15 15 0 8 -7 15 -15 15 -8 0 -15 -7 -15 -15z" fill="url(#lg2Pf1g4NaZu6ZWp)"></path>
            <path id="p9tRfqRUh" d="M1722 768 c-16 -16 -15 -28 1 -28 7 0 18 9 25 20 10 16 10 20 -1 20 -7 0 -18 -5 -25 -12z" fill="url(#lg2Pf1g4NaZu6ZWp)"></path>
            <path id="pjrojGXZY" d="M1304 414 c-9 -40 -22 -54 -68 -74 l-40 -16 42 -17 c35 -14 43 -23 59 -66 l17 -49 16 46 c12 37 24 52 55 69 23 13 33 23 22 23 -21 0 -77 52 -77 71 0 8 -4 21 -9 28 -8 12 -11 8 -17 -15z" fill="url(#lg2Pf1g4NaZu6ZWp)"></path>
        </g>
    </g>
    <g id="l345vXOaPyfjRT26jsNERph" fill="rgb(0,0,0)" style="transform: none;">
        <g style="transform: none;"></g>
    </g>
    <g id="texts" style="transform: none;">
        <g style="transform: none;">
            <text fill="#2f394d" font-family="Arial" x="49.416786%" y="73.3237%" text-anchor="middle" dominant-baseline="central" font-size="344">CarlitosApp</text>
            <text fill="#4c5052" font-family="Arial" x="50.58165%" y="87.417435%" text-anchor="middle" dominant-baseline="central" font-size="161">LINK SHORTENER</text>
        </g>
    </g>
</svg>