<svg class="img-fluid" id="outputsvg"
    xmlns="http://www.w3.org/2000/svg" style="transform: matrix(1, 0, 0, 1, 4.79764, -8.40408); transform-origin: 50% 50%; cursor: move; max-height: 360.16px; transition: none 0s ease 0s;" width="500" height="500" viewBox="0 0 5000 5000">
    <defs>
        <linearGradient id="lg1rPMjzPe4VOLU" gradientUnits="userSpaceOnUse" x1="42.3%" y1="24.1%" x2="45%" y2="51.1%">
            <stop offset="0%" style="stop-color:rgb(0,31,63);"></stop>
            <stop offset="5%" style="stop-color:rgb(0,35,75);"></stop>
            <stop offset="10%" style="stop-color:rgb(0,39,87);"></stop>
            <stop offset="15%" style="stop-color:rgb(0,43,99);"></stop>
            <stop offset="20%" style="stop-color:rgb(0,47,111);"></stop>
            <stop offset="25%" style="stop-color:rgb(0,51,123);"></stop>
            <stop offset="30%" style="stop-color:rgb(0,55,135);"></stop>
            <stop offset="35%" style="stop-color:rgb(0,59,147);"></stop>
            <stop offset="40%" style="stop-color:rgb(0,63,159);"></stop>
            <stop offset="45%" style="stop-color:rgb(0,67,171);"></stop>
            <stop offset="50%" style="stop-color:rgb(0,71,183);"></stop>
            <stop offset="55%" style="stop-color:rgb(0,75,195);"></stop>
            <stop offset="60%" style="stop-color:rgb(0,79,211);"></stop>
            <stop offset="65%" style="stop-color:rgb(0,83,219);"></stop>
            <stop offset="70%" style="stop-color:rgb(0,87,231);"></stop>
            <stop offset="80%" style="stop-color:rgb(0,91,243);"></stop>
            <stop offset="85%" style="stop-color:rgb(0,95,255);"></stop>
            <stop offset="90%" style="stop-color:rgb(12,106,255);"></stop>
            <stop offset="95%" style="stop-color:rgb(12,106,255);"></stop>
            <stop offset="100%" style="stop-color:rgb(12,106,255);"></stop>
        </linearGradient>
        <linearGradient id="lg5AnbWhy2AdCZ3O" gradientUnits="userSpaceOnUse" x1="38.4%" y1="63.4%" x2="45.4%" y2="51%">
            <stop offset="87%" style="stop-color:rgb(12,106,255);"></stop>
            <stop offset="100%" style="stop-color:rgb(12,106,255);"></stop>
        </linearGradient>
        <radialGradient id="rg2su07KAxUQZAYF" gradientUnits="userSpaceOnUse" cx="45%" cy="50%" r="48%">
            <stop offset="80%" style="stop-color:rgb(12,106,255);"></stop>
            <stop offset="100%" style="stop-color:rgb(56,182,255);"></stop>
        </radialGradient>
        <linearGradient id="lg16ideMVvkcdkCp" gradientUnits="userSpaceOnUse" x1="14.1%" y1="58.4%" x2="16.7%" y2="80%">
            <stop offset="0%" style="stop-color:rgb(12,106,255);"></stop>
            <stop offset="100%" style="stop-color:rgb(9,11,14);"></stop>
        </linearGradient>
        <radialGradient id="rg46Kj0Z88WGfaGU" gradientUnits="userSpaceOnUse" cx="70%" cy="63%" r="10.5%">
            <stop offset="58%" style="stop-color:rgb(223,248,252);"></stop>
            <stop offset="100%" style="stop-color:rgb(167,224,240);"></stop>
        </radialGradient>
        <linearGradient id="lg5m8OBxCsgThLZo" gradientUnits="userSpaceOnUse" x1="65.4%" y1="8.3%" x2="72.9%" y2="24.5%">
            <stop offset="50%" style="stop-color:rgb(223,248,252);"></stop>
            <stop offset="100%" style="stop-color:rgb(167,224,240);"></stop>
        </linearGradient>
    </defs>
    <g id="l215Cw7wXj6ZwdfDfncP8L3" fill="rgb(223,248,253)" style="transform: none;">
        <g style="transform: none;">
            <path id="pQmIzAsYJ" d="M3475 3395 c-93 -40 -207 -87 -252 -105 l-82 -33 -7 -44 c-3 -24 -4 -87 -2 -141 4 -81 9 -107 35 -162 38 -82 108 -161 165 -185 24 -10 58 -24 77 -32 25 -11 64 -14 155 -11 108 3 127 6 178 31 79 39 143 104 181 185 27 58 32 81 35 166 3 71 0 115 -12 160 -30 108 -122 216 -184 216 -24 0 -25 -1 -7 -20 17 -19 17 -19 -26 -2 -27 10 -37 18 -26 20 9 2 17 10 17 18 0 30 -76 12 -245 -61z" fill="url(#rg46Kj0Z88WGfaGU)"></path>
        </g>
    </g>
    <g id="l7Fjmg6qSFALTOfY2WNaqAv" fill="rgb(56,182,255)" style="transform: none;">
        <g style="transform: none;">
            <path id="pmEu4uYOL" d="M2066 4343 c3 -21 7 -51 9 -67 3 -17 -2 -38 -13 -55 -10 -14 -28 -42 -40 -62 l-21 -35 70 8 70 8 58 -40 59 -40 -5 74 c-5 69 -4 76 24 117 50 74 52 70 -26 63 -64 -6 -74 -5 -108 18 -21 14 -48 30 -60 36 -21 12 -22 10 -17 -25z" fill="url(#rg2su07KAxUQZAYF)"></path>
            <path id="p1EOJnNnbZ" d="M495 4219 c-45 -13 -100 -63 -124 -112 -43 -89 -18 -208 56 -264 26 -20 33 -32 29 -48 -5 -21 0 -23 77 -39 104 -20 127 -20 127 0 0 11 5 14 16 10 9 -3 24 -6 35 -6 12 0 19 -7 19 -19 0 -15 11 -22 53 -31 101 -22 149 -24 158 -8 13 23 67 11 71 -15 3 -18 17 -23 98 -39 83 -15 95 -16 103 -3 5 10 23 15 51 15 43 0 146 43 146 61 0 5 7 9 15 9 18 0 20 31 3 48 -9 9 -4 13 20 18 22 5 32 12 32 25 0 12 -5 16 -15 13 -11 -5 -13 -2 -9 10 3 9 11 16 16 16 20 0 2 98 -26 140 -51 78 -65 82 -478 160 -380 71 -418 75 -473 59z m164 -158 c10 -6 12 -19 7 -46 -7 -35 -9 -36 -39 -29 -39 8 -39 7 -31 28 4 9 13 15 20 12 8 -3 14 -1 14 4 0 20 -31 9 -42 -15 -14 -30 3 -55 38 -55 15 0 24 -6 24 -15 0 -21 -58 -20 -82 2 -23 20 -24 85 -2 107 17 17 70 21 93 7z m65 -47 c-5 -26 -2 -35 10 -40 26 -10 20 -37 -6 -30 -13 3 -28 6 -34 6 -7 0 -14 11 -16 25 -3 14 -1 25 3 25 5 0 9 11 9 23 0 29 7 37 26 30 11 -4 13 -15 8 -39z m100 19 c4 -4 15 -8 24 -8 17 0 19 -17 7 -72 -6 -27 -34 -37 -69 -23 -31 11 -26 30 7 31 15 0 17 2 7 6 -27 10 -40 34 -29 54 10 19 39 25 53 12z m89 -19 c11 -4 12 -14 7 -45 -6 -33 -5 -39 10 -39 13 0 19 11 24 40 5 29 10 38 21 34 28 -11 13 -104 -16 -104 -11 0 -19 5 -19 10 0 6 -6 5 -14 -2 -8 -7 -10 -14 -5 -16 14 -6 11 -32 -4 -32 -7 0 -20 6 -29 13 -19 15 -33 67 -18 67 6 0 8 11 4 26 -5 19 -4 25 5 20 7 -5 11 0 11 13 0 23 1 24 23 15z m175 -47 c3 -14 -1 -17 -21 -12 -19 5 -25 2 -30 -14 -6 -24 0 -31 25 -31 10 0 18 -7 18 -15 0 -18 -50 -21 -68 -3 -15 15 -16 53 -1 79 14 26 72 23 77 -4z m87 -2 c17 -2 19 -8 17 -41 -5 -61 -34 -80 -83 -53 -27 14 -14 30 19 24 l27 -6 -27 16 c-30 17 -36 43 -16 63 7 7 19 10 28 6 8 -4 24 -8 35 -9z m90 -15 c34 -13 31 -49 -5 -67 -24 -12 -25 -13 -2 -13 13 0 22 -6 22 -15 0 -17 -32 -20 -61 -5 -30 17 -24 48 14 64 l32 14 -27 1 c-27 1 -35 10 -21 24 9 9 17 9 48 -3z m-295 -75 c0 -8 -7 -15 -15 -15 -8 0 -15 7 -15 15 0 8 7 15 15 15 8 0 15 -7 15 -15z" fill="url(#rg2su07KAxUQZAYF)"></path>
            <path id="pNWKkOqOs" d="M1130 3942 c0 -5 7 -13 16 -16 10 -4 14 -1 12 6 -5 15 -28 23 -28 10z" fill="url(#rg2su07KAxUQZAYF)"></path>
            <path id="p133ewGI5I" d="M3755 3946 c-22 -7 -170 -68 -330 -136 -159 -67 -296 -124 -302 -127 -8 -3 -13 2 -13 11 0 15 -3 15 -27 3 -16 -7 -35 -12 -44 -10 -12 3 -16 -2 -14 -21 2 -18 -1 -23 -11 -19 -8 3 -14 1 -14 -4 0 -6 -38 -27 -86 -48 -97 -43 -144 -89 -164 -160 -25 -88 13 -187 92 -241 38 -26 52 -29 118 -29 57 0 85 5 118 22 34 17 42 18 42 6 0 -23 44 -12 48 13 2 16 23 29 85 54 45 18 162 67 260 108 145 60 184 73 211 68 35 -7 69 15 46 29 -16 10 -12 25 9 25 32 0 165 60 193 87 134 128 55 361 -128 378 -28 3 -66 -1 -89 -9z m147 -152 c22 -48 -13 -95 -60 -79 -24 7 -45 51 -36 77 13 41 78 43 96 2z m-107 -50 c13 -35 15 -48 5 -54 -8 -5 -5 -9 10 -13 22 -6 19 -27 -3 -27 -13 0 -69 125 -59 134 15 16 31 2 47 -40z m-63 -1 c26 -23 24 -80 -2 -88 -14 -5 -20 -14 -18 -28 2 -13 -3 -23 -12 -24 -10 -2 -24 18 -41 62 l-27 65 27 14 c36 19 51 19 73 -1z m-158 -83 c9 -22 16 -45 16 -51 0 -10 -59 -39 -79 -39 -9 0 -41 71 -41 90 0 23 32 8 41 -20 6 -16 17 -30 25 -30 17 0 18 14 3 41 -11 22 -6 49 10 49 5 0 16 -18 25 -40z m66 16 c0 -13 -20 -26 -41 -26 -16 0 -9 28 9 33 29 8 32 7 32 -7z m-190 -41 c0 -8 -6 -15 -14 -15 -8 0 -18 -5 -22 -11 -4 -8 3 -9 23 -5 23 5 32 3 37 -9 8 -22 -9 -52 -34 -60 -21 -7 -60 10 -60 25 0 6 -9 1 -20 -10 -24 -24 -40 -26 -40 -5 0 9 11 20 24 26 14 7 27 22 31 36 8 34 75 59 75 28z m-146 -77 c8 -13 6 -22 -8 -37 -19 -21 -9 -30 11 -10 7 7 12 6 16 -5 4 -10 -1 -20 -13 -26 -18 -10 -60 -14 -60 -6 0 2 -3 11 -6 19 -3 8 2 22 12 31 19 20 11 34 -10 17 -11 -9 -16 -9 -22 0 -9 15 25 41 50 37 10 -2 24 -11 30 -20z m-98 -36 c-5 -35 -3 -40 21 -51 24 -11 26 -14 10 -22 -11 -7 -24 -6 -38 1 -19 11 -20 10 -13 -12 11 -37 10 -53 -5 -53 -7 0 -25 28 -39 63 -22 52 -24 65 -12 72 9 6 18 3 27 -8 12 -16 12 -16 13 0 0 16 25 48 37 48 3 0 3 -17 -1 -38z m-94 -55 c18 -48 10 -77 -22 -77 -10 0 -22 -4 -25 -10 -3 -5 -10 -10 -14 -10 -11 0 -51 97 -43 104 13 14 32 4 38 -19 7 -29 30 -50 38 -37 3 6 -1 26 -9 45 -14 34 -11 42 15 46 3 1 13 -18 22 -42z m-112 -53 c11 -25 18 -50 14 -55 -3 -5 0 -9 5 -9 6 0 11 -7 11 -15 0 -34 -27 -11 -53 47 -21 48 -25 63 -15 70 18 11 17 13 38 -38z m-57 12 c3 -8 -5 -18 -19 -25 l-24 -11 19 -49 c19 -48 19 -61 -3 -61 -11 0 -63 117 -55 124 8 7 64 35 70 36 4 0 9 -6 12 -14z"></path>
            <path id="p1CmRw4DRG" d="M3840 3776 c0 -18 26 -40 34 -27 9 14 -4 41 -20 41 -8 0 -14 -6 -14 -14z" fill="url(#rg2su07KAxUQZAYF)"></path>
            <path id="p1EhQt5d9k" d="M3686 3722 c-9 -15 4 -42 20 -42 18 0 18 11 1 35 -9 11 -16 14 -21 7z" fill="url(#rg2su07KAxUQZAYF)"></path>
            <path id="pkYEFTHMX" d="M575 1907 c4 -23 8 -55 10 -72 4 -23 -5 -44 -35 -90 -21 -32 -38 -60 -37 -61 1 0 31 2 67 6 67 7 86 1 167 -57 l23 -15 -6 75 c-6 71 -5 76 23 118 16 24 33 49 36 56 5 8 -11 10 -65 6 -73 -5 -73 -5 -131 36 l-57 40 5 -42z" fill="url(#rg2su07KAxUQZAYF)"></path>
            <path id="ptYWblPfQ" d="M3000 1831 c-75 -23 -118 -61 -151 -135 -27 -62 -21 -128 16 -192 47 -79 23 -71 745 -279 785 -227 784 -227 828 -221 175 23 258 224 146 355 -20 23 -48 48 -63 55 -39 20 -1445 426 -1473 425 -12 0 -34 -4 -48 -8z m-33 -130 c6 -25 35 -36 48 -19 9 12 45 14 45 2 0 -3 -19 -29 -41 -59 -63 -84 -89 -69 -89 51 0 34 4 44 16 44 9 0 18 -9 21 -19z m147 -31 c35 -13 34 -39 -1 -37 -34 2 -46 -31 -14 -40 27 -7 27 -33 1 -33 -21 0 -60 33 -60 51 0 15 21 53 34 61 14 10 10 10 40 -2z m107 -30 c22 -12 27 -68 7 -88 -39 -39 -112 12 -87 60 20 39 44 47 80 28z m74 -56 c-5 -27 -2 -39 9 -47 20 -15 5 -44 -15 -31 -8 5 -20 9 -27 10 -22 4 -23 8 -6 57 20 59 50 67 39 11z m115 -14 c0 -13 -5 -17 -14 -14 -9 3 -17 -3 -21 -17 -5 -14 -3 -25 4 -27 16 -5 14 -32 -3 -32 -8 0 -21 -3 -29 -6 -17 -6 -31 34 -18 50 5 6 11 23 15 39 5 22 12 27 36 27 23 0 30 -5 30 -20z m65 -10 c4 -6 11 -8 16 -5 21 14 27 -8 12 -50 -12 -36 -20 -45 -38 -45 -34 0 -55 10 -55 26 0 17 5 17 31 4 10 -6 19 -7 19 -2 0 5 -11 14 -25 20 -26 12 -29 20 -19 46 7 18 49 22 59 6z m115 -30 c0 -5 6 -7 14 -4 25 10 26 -13 5 -81 -12 -40 -25 -65 -32 -62 -7 2 -12 14 -11 26 0 14 -5 21 -17 21 -37 0 -47 60 -17 98 12 14 58 16 58 2z m122 -32 c29 -23 31 -54 4 -85 -24 -27 -26 -27 -53 -13 -38 21 -44 71 -11 94 27 19 39 20 60 4z m73 -57 c-5 -32 -3 -41 12 -49 14 -8 15 -14 6 -23 -6 -6 -17 -8 -25 -3 -7 5 -20 9 -28 9 -16 0 -16 18 1 73 6 17 17 32 26 32 12 0 13 -8 8 -39z m162 -13 c15 -7 29 -13 31 -14 2 -1 -5 -31 -15 -68 -13 -52 -21 -66 -36 -66 -15 0 -18 5 -13 24 5 20 2 25 -16 28 -43 6 -31 108 12 108 5 0 22 -5 37 -12z m132 -41 c15 -19 4 -27 -33 -22 l-31 5 33 -12 c35 -12 40 -28 16 -52 -46 -46 -106 15 -74 75 13 23 71 26 89 6z m107 -51 c-1 -12 -6 -27 -10 -34 -4 -7 -4 -16 -1 -22 3 -5 2 -10 -3 -10 -6 0 -13 -11 -16 -25 -6 -25 -36 -36 -36 -12 0 11 23 91 35 124 7 21 34 3 31 -21z m57 -6 c3 -11 1 -20 -5 -20 -6 0 -8 -9 -5 -20 3 -11 1 -20 -4 -20 -5 0 -9 -7 -9 -15 0 -8 -4 -15 -10 -15 -5 0 -7 -6 -4 -14 7 -18 -8 -27 -25 -16 -9 5 -10 13 -5 21 5 8 10 23 11 34 11 72 44 110 56 65z m52 -27 c-11 -43 -11 -56 2 -60 7 -3 16 12 23 36 7 28 15 39 24 35 18 -7 29 -34 15 -34 -6 0 -9 -8 -7 -17 2 -10 -4 -27 -14 -37 -16 -18 -21 -18 -58 -6 -22 7 -40 15 -40 17 0 2 5 24 11 49 9 34 16 44 31 44 17 0 19 -4 13 -27z m116 -33 c-3 -24 -2 -24 16 -7 21 18 53 23 53 8 0 -5 -11 -18 -25 -29 -22 -17 -23 -21 -10 -38 14 -18 16 -18 26 -1 5 9 19 17 29 17 11 0 20 5 20 10 0 6 -9 10 -20 10 -11 0 -20 5 -20 10 0 17 25 22 54 10 22 -8 27 -15 24 -37 -2 -22 -10 -29 -33 -34 -23 -5 -25 -7 -7 -8 12 0 22 -7 22 -16 0 -19 -44 -20 -62 -2 -7 8 -20 12 -30 10 -10 -3 -22 4 -30 16 -18 29 -25 26 -33 -9 -7 -33 -7 -32 -28 -24 -22 8 19 146 42 142 11 -2 15 -12 12 -28z" fill="url(#rg2su07KAxUQZAYF)"></path>
            <path id="pGjZ3XtNt" d="M3176 1604 c-9 -24 -7 -34 8 -34 16 0 29 27 20 41 -8 14 -21 11 -28 -7z" fill="url(#rg2su07KAxUQZAYF)"></path>
            <path id="pxYN9Ky9y" d="M3556 1494 c-9 -24 -7 -34 8 -34 16 0 29 27 20 41 -8 14 -21 11 -28 -7z" fill="url(#rg2su07KAxUQZAYF)"></path>
            <path id="pi0Nuhica" d="M3670 1459 c-9 -16 -9 -24 -1 -32 12 -12 31 6 31 30 0 22 -19 24 -30 2z" fill="url(#rg2su07KAxUQZAYF)"></path>
            <path id="pyHrVxrUA" d="M3912 1398 c-7 -7 -12 -18 -12 -25 0 -18 29 -16 37 3 8 21 -10 37 -25 22z" fill="url(#rg2su07KAxUQZAYF)"></path>
            <path id="p3Zqq2mJq" d="M1082 907 c9 -70 8 -71 -27 -123 -19 -30 -35 -57 -35 -60 0 -4 30 -4 66 -1 65 6 67 6 126 -34 l60 -41 -7 76 c-7 75 -7 75 29 126 20 27 36 53 36 56 0 3 -31 3 -69 -1 -69 -7 -70 -7 -128 33 l-59 40 8 -71z" fill="url(#rg2su07KAxUQZAYF)"></path>
            <path id="p18kTcXtyy" d="M2422 908 c8 -65 7 -74 -15 -107 -13 -20 -31 -48 -40 -62 l-17 -25 70 8 71 8 61 -41 61 -41 -7 73 c-7 73 -6 75 29 127 19 30 35 56 35 59 0 3 -31 2 -70 -2 -68 -7 -71 -6 -117 27 -27 19 -53 38 -59 41 -7 4 -8 -16 -2 -65z" fill="url(#rg2su07KAxUQZAYF)"></path>
        </g>
    </g>
    <g id="l2qo5sy1Fz7KTc5KNPHC5Ti" fill="rgb(135,153,165)" style="transform: none;">
        <g style="transform: none;">
            <path id="p16Ss4SueM" d="M1398 3823 c-16 -4 -33 -32 -24 -41 3 -2 21 -1 41 2 26 5 35 12 35 26 0 20 -14 23 -52 13z"></path>
            <path id="pnAVV4Foz" d="M750 3730 c0 -16 7 -20 35 -20 40 0 49 24 13 34 -38 10 -48 7 -48 -14z"></path>
            <path id="pEEknm3r3" d="M910 3700 c0 -11 6 -20 14 -20 7 0 16 9 19 20 4 15 0 20 -14 20 -12 0 -19 -7 -19 -20z"></path>
            <path id="pUthetyL4" d="M1070 3670 c0 -16 7 -20 35 -20 40 0 49 24 13 34 -38 10 -48 7 -48 -14z"></path>
            <path id="p4UPxR2PV" d="M3388 1233 c-9 -10 -37 -56 -64 -102 -47 -82 -49 -88 -49 -162 0 -90 13 -115 89 -166 65 -44 90 -43 115 5 l20 38 -34 13 c-19 6 -47 28 -64 47 -45 51 -41 83 24 199 30 53 55 102 55 109 0 36 -65 49 -92 19z" fill="url(#lg5m8OBxCsgThLZo)"></path>
            <path id="pd7K3KODh" d="M3705 1109 l-26 -40 24 -59 24 -60 46 84 c26 45 47 85 47 88 0 7 -58 28 -76 28 -8 0 -25 -18 -39 -41z" fill="url(#lg5m8OBxCsgThLZo)"></path>
            <path id="pezSdBBe8" d="M3466 1084 c-27 -40 -26 -54 4 -54 11 0 37 -17 60 -38 52 -50 54 -92 7 -173 -78 -135 -150 -248 -167 -264 -32 -29 -90 -30 -130 -3 -71 48 -75 105 -15 206 35 58 37 65 24 90 -7 15 -18 42 -24 60 l-10 33 -55 -92 c-68 -114 -78 -141 -79 -203 -2 -117 101 -216 223 -216 59 0 86 11 135 55 38 35 181 265 215 347 23 55 20 135 -7 182 -24 42 -87 91 -129 101 -22 6 -30 1 -52 -31z" fill="url(#lg5m8OBxCsgThLZo)"></path>
        </g>
    </g>
    <g id="l1LeWkMKHCozlej4Nkcj25K" fill="rgb(77,91,125)" style="transform: none;">
        <g style="transform: none;">
            <path id="p1A2FLqOLV" d="M480 3780 c0 -16 7 -20 35 -20 40 0 49 24 13 34 -38 10 -48 7 -48 -14z"></path>
            <path id="poH12sJkp" d="M1394 3751 c10 -10 26 -21 37 -24 15 -4 19 0 19 19 0 21 -5 24 -37 24 -35 0 -36 -1 -19 -19z"></path>
            <path id="pqqXXgH9M" d="M800 3720 c0 -16 7 -20 35 -20 40 0 49 24 13 34 -38 10 -48 7 -48 -14z"></path>
            <path id="p19WnSske0" d="M3070 3691 c-8 -6 -18 -7 -22 -5 -4 3 -8 -2 -8 -10 0 -9 8 -16 18 -16 18 1 52 22 52 34 0 9 -23 7 -40 -3z"></path>
            <path id="pKSyLkBUQ" d="M1120 3660 c0 -16 7 -20 35 -20 40 0 49 24 13 34 -38 10 -48 7 -48 -14z"></path>
            <path id="pz1YamLjo" d="M1670 1774 c0 -4 17 -27 37 -52 94 -115 252 -186 413 -185 125 1 264 49 325 113 l29 30 -32 0 c-18 0 -44 -7 -57 -16 -13 -8 -36 -14 -52 -12 -25 3 -28 6 -25 36 2 17 2 32 0 32 -2 0 -28 -10 -58 -21 -113 -45 -266 -24 -374 50 -25 18 -46 27 -46 21 0 -5 -22 -10 -50 -10 -27 0 -50 5 -50 10 0 6 -13 10 -30 10 -16 0 -30 -3 -30 -6z" fill="url(#lg1rPMjzPe4VOLU)"></path>
            <path id="pyPI0SAfl" d="M2095 1238 c12 -37 19 -39 37 -8 l17 30 -30 0 c-27 0 -30 -3 -24 -22z"></path>
        </g>
    </g>
    <g id="l1AA2Wx91job6e2gQPcetVP" fill="rgb(67,81,111)" style="transform: none;">
        <g style="transform: none;">
            <path id="p12ckx6OML" d="M530 3770 c0 -16 7 -20 35 -20 40 0 49 24 13 34 -38 10 -48 7 -48 -14z"></path>
            <path id="pYCqvh9cI" d="M1393 3755 c36 -32 47 -31 47 0 0 22 -4 25 -37 25 l-38 -1 28 -24z"></path>
            <path id="pvbBoeBJZ" d="M850 3710 c0 -16 7 -20 35 -20 40 0 49 24 13 34 -38 10 -48 7 -48 -14z"></path>
            <path id="pFDfgs1k6" d="M1010 3680 c0 -16 7 -20 35 -20 40 0 49 24 13 34 -38 10 -48 7 -48 -14z"></path>
            <path id="pLPtt2xYI" d="M1170 3650 c0 -23 35 -28 43 -6 7 18 -1 26 -25 26 -11 0 -18 -7 -18 -20z"></path>
            <path id="py7JOiHRR" d="M2710 2814 c0 -3 4 -14 10 -24 22 -42 131 -46 138 -5 4 16 -1 17 -41 11 -35 -5 -46 -4 -50 9 -6 14 -57 22 -57 9z"></path>
            <path id="pRzfmHrQl" d="M1390 2767 c0 -40 3 -45 39 -65 21 -12 55 -22 75 -22 39 0 96 24 96 40 0 16 -35 29 -51 19 -31 -20 -80 -10 -110 22 -16 17 -29 35 -29 40 0 5 -4 9 -10 9 -5 0 -10 -19 -10 -43z" fill="url(#lg5AnbWhy2AdCZ3O)"></path>
            <path id="p9jNa4YbG" d="M1730 2780 c0 -13 7 -20 18 -20 11 0 27 9 37 20 18 20 17 20 -18 20 -30 0 -37 -4 -37 -20z"></path>
            <path id="pMgUnc5If" d="M2520 2776 c0 -17 37 -27 68 -19 41 10 26 33 -23 33 -32 0 -45 -4 -45 -14z" fill="url(#lg5AnbWhy2AdCZ3O)"></path>
            <path id="ph0AUHLUb" d="M1940 2030 c0 -5 -16 -12 -35 -16 -25 -4 -35 -11 -35 -25 0 -31 67 -21 103 16 24 23 21 35 -8 35 -14 0 -25 -4 -25 -10z"></path>
            <path id="p1EHwzOoL4" d="M1450 2013 c0 -23 67 -43 134 -40 55 2 66 5 66 20 0 13 -9 17 -39 17 -21 0 -66 3 -100 6 -39 5 -61 3 -61 -3z"></path>
            <path id="p1GOxsj0ws" d="M2310 1990 c0 -17 7 -20 45 -20 38 0 45 3 45 20 0 17 -7 20 -45 20 -38 0 -45 -3 -45 -20z"></path>
            <path id="pqA4HVc3A" d="M1620 1870 c0 -19 39 -88 65 -116 22 -24 33 -27 93 -29 37 0 77 -6 89 -13 26 -15 53 -16 53 -2 0 6 -6 10 -14 10 -16 0 -101 86 -129 131 -18 27 -23 29 -88 29 -41 0 -69 -4 -69 -10z" fill="url(#lg1rPMjzPe4VOLU)"></path>
            <path id="pUqqMIW5" d="M2540 1810 c0 -11 -6 -20 -14 -20 -8 0 -24 -12 -35 -27 l-21 -26 -16 41 -16 41 -51 -40 c-59 -47 -96 -68 -156 -90 l-44 -15 54 -26 c30 -14 74 -28 99 -30 38 -4 53 1 97 30 47 31 153 151 153 173 0 5 -11 9 -25 9 -18 0 -25 -5 -25 -20z" fill="url(#lg1rPMjzPe4VOLU)"></path>
            <path id="pF5yDMNgq" d="M2100 1336 c0 -8 -14 -26 -31 -39 -31 -24 -31 -25 -10 -32 12 -3 28 -17 36 -29 l15 -23 34 31 34 31 -29 27 c-16 15 -29 32 -29 37 0 6 -4 11 -10 11 -5 0 -10 -6 -10 -14z" fill="url(#lg1rPMjzPe4VOLU)"></path>
        </g>
    </g>
    <g id="lXYUHfZ9LdYjHRL1l6qBOD" fill="rgb(54,66,92)" style="transform: none;">
        <g style="transform: none;">
            <path id="pMHjN5Hwr" d="M452 3790 c-11 -19 -10 -20 23 -20 24 0 35 5 35 15 0 8 -4 15 -9 15 -5 0 -15 2 -23 5 -7 3 -19 -4 -26 -15z"></path>
            <path id="pMoac4IZL" d="M1660 2864 c0 -13 31 -24 73 -24 17 0 27 -5 27 -15 0 -17 -34 -28 -76 -23 -23 2 -29 -1 -29 -16 0 -46 110 -38 142 10 12 20 13 29 4 52 -11 27 -15 28 -76 28 -44 0 -65 -4 -65 -12z" fill="url(#lg5AnbWhy2AdCZ3O)"></path>
            <path id="pcmNNWOT6" d="M2710 2822 c0 -32 42 -62 86 -62 47 0 69 12 61 34 -5 13 -15 15 -47 10 -36 -6 -42 -4 -47 15 -7 27 -53 30 -53 3z" fill="url(#lg5AnbWhy2AdCZ3O)"></path>
            <path id="p1HdXt8OQq" d="M1368 2812 c-17 -7 -17 -10 2 -48 13 -26 33 -47 58 -59 38 -19 85 -31 67 -18 -5 5 -11 13 -12 19 -1 6 -18 27 -38 47 -19 19 -35 42 -35 51 0 17 -13 19 -42 8z" fill="url(#lg5AnbWhy2AdCZ3O)"></path>
            <path id="pXObpJ2Yv" d="M2595 2810 c-3 -5 -28 -10 -56 -10 -27 0 -49 -4 -49 -10 0 -27 91 -41 130 -20 11 6 24 19 30 30 10 18 7 20 -19 20 -16 0 -33 -4 -36 -10z"></path>
            <path id="p13FLIxz4O" d="M1890 2785 c0 -30 19 -32 43 -5 23 27 22 30 -13 30 -25 0 -30 -4 -30 -25z"></path>
            <path id="p12p8ySkjT" d="M2380 2788 c0 -10 -11 -12 -40 -10 -25 3 -40 0 -40 -7 0 -6 4 -11 9 -11 5 0 11 -10 13 -22 4 -30 43 -32 43 -3 0 12 9 21 25 25 29 7 34 33 8 38 -10 2 -18 -3 -18 -10z" fill="url(#lg5AnbWhy2AdCZ3O)"></path>
            <path id="p16sGG30I0" d="M2062 2735 c1 -45 23 -82 32 -54 20 65 15 99 -15 99 -16 0 -19 -7 -17 -45z" fill="url(#lg5AnbWhy2AdCZ3O)"></path>
            <path id="p1B3AkdLm8" d="M1540 2730 c0 -5 6 -10 14 -10 8 0 18 5 21 10 3 6 -3 10 -14 10 -12 0 -21 -4 -21 -10z" fill="url(#lg5AnbWhy2AdCZ3O)"></path>
            <path id="pzARCJEJx" d="M1453 2116 c-40 -50 -27 -106 29 -125 53 -19 395 -26 442 -10 48 17 78 55 69 88 l-6 24 -113 -7 c-63 -4 -176 -4 -253 0 l-140 7 -3 26 -3 26 -22 -29z" fill="url(#lg1rPMjzPe4VOLU)"></path>
            <path id="p9VVDhBbr" d="M2253 2120 c-41 -37 -25 -108 29 -132 49 -22 298 -26 298 -4 0 56 -46 86 -131 86 -26 0 -50 4 -53 9 -3 5 -30 12 -60 15 -44 6 -55 11 -58 27 -3 20 -3 20 -25 -1z" fill="url(#lg1rPMjzPe4VOLU)"></path>
            <path id="pZ8yifoK1" d="M2680 1990 c0 -20 22 -26 54 -14 30 12 18 34 -19 34 -28 0 -35 -4 -35 -20z"></path>
            <path id="p9mgEvV5d" d="M1620 1871 c0 -29 92 -36 117 -9 15 17 13 18 -50 18 -37 0 -67 -4 -67 -9z" fill="url(#lg1rPMjzPe4VOLU)"></path>
            <path id="pJSyFSIFz" d="M2437 1833 c-27 -43 -28 -49 -15 -82 20 -52 59 -59 99 -18 38 39 75 95 84 125 5 19 3 22 -19 22 -16 0 -26 -6 -26 -15 0 -8 -5 -15 -10 -15 -6 0 -13 7 -16 15 -4 9 -19 15 -38 15 -26 -1 -35 -8 -59 -47z" fill="url(#lg1rPMjzPe4VOLU)"></path>
            <path id="pvZF12ov5" d="M2096 1318 c-10 -38 -7 -45 20 -51 33 -6 41 15 17 47 -22 31 -29 32 -37 4z" fill="url(#lg1rPMjzPe4VOLU)"></path>
        </g>
    </g>
    <g id="lE5DVPDDnt9hSyYDA4DnWN" fill="rgb(47,57,77)" style="transform: none;">
        <g style="transform: none;">
            <path id="p1Beqge0Ku" d="M1402 3820 c-28 -12 -38 -36 -22 -55 17 -21 30 -19 30 5 0 15 7 20 25 20 18 0 25 5 25 20 0 22 -19 25 -58 10z"></path>
            <path id="pvxEliJiM" d="M580 3760 c0 -16 7 -20 35 -20 40 0 49 24 13 34 -38 10 -48 7 -48 -14z"></path>
            <path id="pBm3v9jYs" d="M740 3730 c0 -16 7 -20 35 -20 40 0 49 24 13 34 -38 10 -48 7 -48 -14z"></path>
            <path id="pzpqppPKU" d="M900 3700 c0 -13 7 -20 20 -20 13 0 20 7 20 20 0 13 -7 20 -20 20 -13 0 -20 -7 -20 -20z"></path>
            <path id="pTUfkzE6f" d="M1060 3670 c0 -16 7 -20 35 -20 40 0 49 24 13 34 -38 10 -48 7 -48 -14z"></path>
            <path id="pAPPYZOqy" d="M1772 2963 c-7 -11 -15 -14 -28 -8 -27 11 -87 12 -101 2 -7 -5 -13 -24 -13 -42 0 -44 29 -68 85 -69 25 -1 45 -4 45 -8 0 -19 2 -24 17 -32 8 -4 19 -4 23 0 8 8 13 87 11 152 -1 26 -26 30 -39 5z m-31 -41 c28 -23 20 -52 -15 -52 -23 0 -56 23 -56 39 0 11 23 31 36 31 6 0 22 -8 35 -18z" fill="url(#lg5AnbWhy2AdCZ3O)"></path>
            <path id="pBGPHX4nr" d="M1889 2959 c-11 -21 -6 -185 6 -197 3 -3 14 3 25 13 19 17 21 17 38 2 18 -17 53 -23 65 -11 12 13 -19 44 -43 44 -40 0 -50 18 -50 86 0 71 -20 102 -41 63z" fill="url(#lg5AnbWhy2AdCZ3O)"></path>
            <path id="p5Y13nrZW" d="M2065 2970 c-9 -15 -4 -240 6 -240 5 0 6 -7 3 -15 -4 -9 0 -15 9 -15 8 0 17 10 21 23 10 37 7 217 -4 238 -12 21 -25 25 -35 9z" fill="url(#lg5AnbWhy2AdCZ3O)"></path>
            <path id="pBFbqNEBi" d="M2185 2960 c-7 -21 -5 -137 3 -177 2 -13 10 -23 17 -23 12 0 23 79 24 170 0 44 -32 66 -44 30z" fill="url(#lg5AnbWhy2AdCZ3O)"></path>
            <path id="pWBh0NsCE" d="M2370 2961 c0 -16 -6 -21 -25 -21 -24 0 -25 -2 -25 -70 0 -63 -2 -70 -20 -70 -13 0 -20 -7 -20 -20 0 -13 7 -20 19 -20 10 0 21 -9 24 -20 3 -11 11 -20 19 -19 10 0 10 2 1 6 -7 2 -13 9 -13 14 0 4 6 6 14 3 8 -3 17 -1 21 5 3 6 15 11 26 11 12 0 19 7 19 20 0 13 -7 20 -19 20 -22 0 -31 19 -31 65 0 49 9 65 37 65 20 0 24 4 21 23 -4 30 -48 38 -48 8z" fill="url(#lg5AnbWhy2AdCZ3O)"></path>
            <path id="pbEivxzhF" d="M1452 2960 c-41 -10 -71 -36 -88 -77 -19 -45 -17 -76 6 -105 10 -14 16 -29 12 -33 -4 -4 2 -2 14 5 17 11 20 20 16 64 -3 41 0 56 17 78 27 33 70 43 116 27 28 -11 37 -11 47 0 11 10 8 16 -11 32 -24 20 -70 23 -129 9z" fill="url(#lg5AnbWhy2AdCZ3O)"></path>
            <path id="pCkglmtSq" d="M2830 2957 c0 -10 -4 -17 -8 -17 -5 0 -8 -9 -8 -21 1 -15 -9 -24 -39 -34 -77 -27 -85 -72 -15 -90 53 -14 61 -16 78 -23 17 -6 26 4 19 22 -5 12 -16 14 -52 9 -41 -5 -45 -4 -45 15 0 16 8 23 38 28 20 4 45 13 55 22 23 20 22 65 -3 87 -18 16 -20 16 -20 2z" fill="url(#lg5AnbWhy2AdCZ3O)"></path>
            <path id="pmYQAezQL" d="M2487 2942 c-9 -10 -22 -32 -28 -49 -8 -26 -7 -38 10 -71 26 -50 29 -52 90 -56 40 -3 54 1 75 20 42 39 46 114 8 157 -22 25 -132 24 -155 -1z m115 -29 c20 -18 24 -73 6 -91 -20 -20 -86 -15 -98 7 -16 30 -12 59 10 81 24 24 57 26 82 3z" fill="url(#lg5AnbWhy2AdCZ3O)"></path>
            <path id="pw1EaJfGH" d="M2710 2946 c0 -21 15 -28 45 -20 39 10 32 34 -10 34 -24 0 -35 -5 -35 -14z"></path>
            <path id="pRY7DXZZz" d="M1654 2798 c-10 -16 14 -34 28 -20 7 7 23 12 37 12 33 0 24 6 -21 13 -21 3 -40 1 -44 -5z" fill="url(#lg5AnbWhy2AdCZ3O)"></path>
            <path id="pUSV5YSwl" d="M2185 2710 c-8 -13 3 -30 20 -30 20 0 30 21 14 31 -18 11 -26 11 -34 -1z" fill="url(#lg5AnbWhy2AdCZ3O)"></path>
            <path id="piPtAidne" d="M1903 2535 c-43 -18 -42 -35 2 -35 31 0 35 3 35 25 0 14 -1 25 -2 25 -2 -1 -18 -7 -35 -15z"></path>
            <path id="pUF8wyJg0" d="M1797 2472 c-72 -58 -110 -100 -143 -158 -19 -33 -34 -66 -34 -71 0 -7 27 -10 73 -7 62 3 74 6 87 26 27 43 105 109 159 135 71 35 208 44 293 19 105 -30 242 -161 251 -238 2 -22 -1 -23 -101 -28 -101 -5 -105 -6 -128 -35 -13 -16 -24 -33 -24 -36 0 -6 77 -20 112 -20 10 0 20 -4 23 -10 4 -5 28 -9 54 -9 78 0 135 -29 116 -60 -10 -16 189 -9 224 7 92 45 41 163 -71 163 -43 0 -51 3 -56 23 -17 66 -95 197 -144 243 -42 39 -53 45 -56 31 -3 -13 -10 -16 -30 -11 -15 4 -34 13 -43 20 -8 8 -37 14 -62 14 -26 0 -47 5 -47 10 0 12 -60 13 -92 1 -21 -8 -69 -5 -276 13 -45 4 -56 1 -85 -22z" fill="url(#lg1rPMjzPe4VOLU)"></path>
            <path id="pTwKdrftB" d="M1472 2133 c-20 -17 -26 -33 -23 -59 1 -7 49 -14 133 -18 73 -4 138 -12 145 -18 10 -8 20 -8 36 0 12 6 62 13 110 17 84 6 89 5 94 -14 9 -36 23 -23 23 22 0 32 -6 49 -21 63 -19 17 -41 19 -248 22 -207 3 -229 1 -249 -15z" fill="url(#lg1rPMjzPe4VOLU)"></path>
            <path id="pds4VtCQw" d="M2466 1864 c-3 -9 -2 -12 5 -9 5 4 27 -12 47 -36 l38 -42 16 26 c10 13 20 37 24 51 l6 26 -65 0 c-49 0 -66 -4 -71 -16z" fill="url(#lg1rPMjzPe4VOLU)"></path>
        </g>
    </g>
    <g id="l6JdqaHTuHe8IgNvwS89Ct2" fill="rgb(37,45,61)" style="transform: none;">
        <g style="transform: none;">
            <path id="pjReu5D7f" d="M1381 3806 c-15 -18 -5 -41 25 -61 l24 -15 0 45 c0 37 -3 45 -19 45 -10 0 -24 -6 -30 -14z"></path>
            <path id="p1GJnc18aJ" d="M470 3781 c0 -19 34 -31 91 -31 50 0 35 27 -21 39 -67 14 -70 14 -70 -8z"></path>
            <path id="pOJxabQ3G" d="M730 3732 c0 -14 19 -21 100 -36 55 -10 103 -16 106 -13 19 19 -12 35 -98 50 -115 21 -108 21 -108 -1z"></path>
            <path id="pXdPkQCxb" d="M1010 3682 c0 -17 13 -22 96 -38 82 -15 97 -16 104 -4 12 19 0 25 -85 39 -38 7 -80 15 -92 18 -18 4 -23 1 -23 -15z"></path>
            <path id="pOdhw8qEK" d="M3030 3678 c0 -26 2 -26 30 -16 30 10 46 25 37 34 -3 3 -14 1 -25 -5 -13 -7 -22 -7 -30 1 -9 9 -12 6 -12 -14z"></path>
            <path id="p1HuWV3Xsn" d="M3143 3213 c-7 -2 -13 -11 -13 -20 0 -20 34 -12 38 10 3 17 -3 20 -25 10z"></path>
            <path id="pRf9ysFLf" d="M1429 2957 c-19 -12 -33 -27 -31 -32 3 -12 43 -14 58 -4 17 14 67 14 92 0 17 -9 25 -9 36 1 11 11 9 17 -13 35 -35 31 -97 31 -142 0z" fill="url(#lg5AnbWhy2AdCZ3O)"></path>
            <path id="pMRFg1hNp" d="M1650 2960 c-23 -23 -25 -47 -5 -74 17 -23 35 -13 28 15 -7 27 14 41 50 33 26 -5 28 -4 18 14 -19 36 -61 42 -91 12z" fill="url(#lg5AnbWhy2AdCZ3O)"></path>
            <path id="puxMGizZV" d="M1779 2978 c-9 -34 -5 -59 11 -68 16 -8 19 -5 25 20 7 33 1 50 -21 50 -8 0 -14 -1 -15 -2z" fill="url(#lg5AnbWhy2AdCZ3O)"></path>
            <path id="p1F9Z5YP19" d="M1895 2967 c-9 -22 -2 -62 10 -60 6 1 11 14 13 29 4 32 -14 56 -23 31z" fill="url(#lg5AnbWhy2AdCZ3O)"></path>
            <path id="p10ZNypyZ3" d="M2068 2953 c-2 -17 4 -34 14 -44 9 -8 18 -35 21 -60 2 -30 4 -20 5 32 1 47 -2 79 -10 87 -19 19 -26 14 -30 -15z" fill="url(#lg5AnbWhy2AdCZ3O)"></path>
            <path id="p13DQiER32" d="M2186 2949 c-3 -17 -1 -40 6 -52 7 -12 11 -25 10 -29 -1 -5 2 -8 7 -8 5 0 11 19 13 43 8 68 -23 108 -36 46z" fill="url(#lg5AnbWhy2AdCZ3O)"></path>
            <path id="p1DVw9ObF6" d="M2342 2957 c-16 -17 -22 -34 -21 -63 1 -22 4 -29 6 -17 2 12 13 25 24 28 10 4 19 10 19 15 0 5 10 10 23 12 14 2 22 10 22 23 0 30 -45 32 -73 2z" fill="url(#lg5AnbWhy2AdCZ3O)"></path>
            <path id="p5lnrMuJ7" d="M2498 2951 c-27 -24 -30 -31 -19 -44 11 -14 14 -14 32 4 11 11 33 19 54 19 28 0 37 -5 49 -29 23 -43 69 -56 51 -14 -9 21 -12 29 -14 43 -2 17 -64 50 -93 50 -16 0 -41 -12 -60 -29z" fill="url(#lg5AnbWhy2AdCZ3O)"></path>
            <path id="pU7kpCr3" d="M2728 2969 c-21 -12 -24 -35 -5 -42 6 -2 27 0 46 5 27 8 36 6 51 -10 11 -11 16 -23 12 -27 -4 -4 2 -6 13 -3 57 10 2 88 -62 88 -21 0 -46 -5 -55 -11z" fill="url(#lg5AnbWhy2AdCZ3O)"></path>
            <path id="prU2AA8Q5" d="M2000 2566 c-60 -13 -190 -72 -190 -86 0 -13 33 -21 108 -25 77 -5 99 -8 108 -18 11 -11 36 -8 29 3 -3 6 1 10 9 10 8 0 17 -4 21 -9 5 -9 29 -8 82 4 12 3 24 1 27 -4 3 -5 16 -7 28 -3 14 3 19 2 14 -6 -8 -13 6 -17 17 -5 14 13 65 12 77 -2 7 -8 20 -15 29 -15 9 0 26 -7 38 -15 12 -8 28 -12 36 -9 9 3 17 -3 20 -18 6 -21 11 -23 42 -20 19 2 35 8 35 12 0 4 -28 35 -62 68 -129 128 -294 177 -468 138z" fill="url(#lg1rPMjzPe4VOLU)"></path>
        </g>
    </g>
    <g id="lsZIISTndNtFpGjoJs6jwJ" fill="rgb(0,0,0)" style="transform: none;">
        <g style="transform: none;">
            <path id="p11p7APdYp" d="M1425 3822 c-29 -10 -50 -23 -50 -31 0 -18 103 -103 118 -98 7 2 16 18 21 36 8 28 12 32 35 26 57 -13 136 -60 186 -110 91 -91 133 -210 121 -342 -4 -43 -3 -73 3 -73 29 0 30 171 1 256 -45 129 -148 235 -268 275 -57 19 -62 23 -60 47 3 23 -1 27 -27 29 -16 2 -52 -5 -80 -15z"></path>
            <path id="pmM4eetSk" d="M451 3786 c-23 -47 -62 -278 -49 -292 3 -2 46 -12 97 -23 l92 -19 9 22 c9 20 60 265 60 285 0 5 -26 13 -57 17 -32 4 -77 12 -99 19 -39 12 -43 11 -53 -9z" fill="url(#lg16ideMVvkcdkCp)"></path>
            <path id="pgoW7khuM" d="M2723 3796 c-115 -36 -222 -135 -259 -238 -8 -23 -23 -50 -34 -60 -11 -10 -29 -37 -41 -60 -26 -50 -24 -149 4 -192 26 -39 38 -23 16 21 -25 49 -24 116 2 170 23 47 39 56 39 21 1 -35 36 -105 58 -117 68 -37 117 32 77 109 -18 35 -61 70 -86 70 -25 0 -24 21 2 71 46 92 190 188 292 197 80 6 133 -12 191 -69 50 -48 51 -50 31 -65 -11 -9 -15 -15 -10 -13 70 26 105 44 105 56 0 11 -4 11 -28 -1 -27 -14 -29 -13 -66 26 -75 79 -186 107 -293 74z m-174 -333 c47 -57 35 -125 -19 -108 -25 8 -60 74 -60 115 0 45 39 41 79 -7z"></path>
            <path id="piQWs3EvK" d="M687 3523 c-26 -125 -48 -239 -49 -253 -3 -22 3 -26 67 -41 102 -25 133 -24 140 4 13 55 95 460 95 467 0 7 -63 23 -176 45 l-31 6 -46 -228z" fill="url(#lg16ideMVvkcdkCp)"></path>
            <path id="p1BgonHhaB" d="M946 3373 c-36 -181 -66 -333 -66 -340 0 -18 15 -24 101 -43 59 -13 82 -15 92 -6 11 9 116 497 140 647 4 26 2 27 -82 44 -47 9 -93 18 -102 21 -13 4 -26 -49 -83 -323z" fill="url(#lg16ideMVvkcdkCp)"></path>
            <path id="p5Baa5486" d="M3725 3460 c-10 -11 -13 -20 -8 -20 22 0 113 -83 146 -133 130 -196 60 -461 -150 -564 -71 -34 -217 -45 -274 -20 -19 8 -53 22 -77 32 -57 24 -127 102 -165 183 -28 60 -32 77 -33 172 -1 58 -5 104 -8 103 -3 -2 -12 -3 -20 -3 -10 0 -16 -19 -22 -67 -14 -133 28 -255 122 -354 211 -220 574 -156 705 126 67 143 43 329 -57 448 -25 29 -126 117 -136 117 -3 0 -13 -9 -23 -20z"></path>
            <path id="pBslGRHNq" d="M3304 3218 c-75 -50 -91 -128 -44 -206 29 -46 84 -70 169 -73 74 -2 98 8 88 34 -4 11 -29 17 -84 22 -91 9 -108 16 -128 55 -24 47 -19 78 20 117 33 33 36 34 108 32 78 -2 97 3 97 26 0 19 -23 25 -105 25 -65 0 -78 -3 -121 -32z"></path>
            <path id="p16fTXrbld" d="M3591 3242 c-6 -2 -11 -15 -11 -28 0 -22 4 -24 53 -24 136 0 200 -67 152 -160 -19 -36 -63 -51 -145 -48 -63 3 -65 2 -65 -22 0 -24 3 -25 70 -28 39 -2 84 0 102 3 68 12 123 104 109 179 -8 43 -54 99 -93 114 -28 11 -151 21 -172 14z"></path>
            <path id="pwMWJpKrJ" d="M3393 3104 c-13 -36 23 -45 167 -42 129 3 135 4 138 24 4 29 -18 34 -171 34 -109 0 -129 -2 -134 -16z"></path>
            <path id="pj4X0qEE6" d="M2594 1464 c17 -70 68 -157 123 -213 95 -94 216 -139 345 -127 66 6 69 5 78 -19 5 -14 14 -25 19 -25 18 0 116 86 116 100 0 20 -40 37 -103 46 l-54 7 4 -39 3 -39 -49 -9 c-62 -12 -170 5 -234 38 -99 51 -168 130 -207 238 -23 65 -54 96 -41 42z"></path>
        </g>
    </g>
</svg>