<svg class="img-fluid" id="outputsvg" xmlns="http://www.w3.org/2000/svg"
    style="transform: none; transform-origin: 50% 50%; cursor: move; max-height: none;" width="193"
    height="186" viewBox="0 0 1930 1860">
    <g id="lVGpiABLYAQNVuiHJW1wnz" fill="rgb(176,162,128)" style="transform: none;">
        <g>
            <path id="p14hWzkDha"
                d="M517 644 c32 -49 145 -132 217 -160 94 -36 235 -44 322 -19 59 17 154 63 154 74 0 7 -50 31 -65 31 -7 0 -26 7 -44 16 -28 14 -43 15 -105 5 -95 -14 -170 -1 -261 43 -62 29 -80 33 -152 34 l-82 0 16 -24z"></path>
        </g>
    </g>
    <g id="l45KM3siQvq75N0g64V8Ujl" fill="rgb(191,177,148)" style="transform: none;">
        <g>
            <path id="pM75BsJ4O"
                d="M440 780 c0 -16 29 -70 56 -107 28 -37 94 -61 128 -45 24 10 49 5 40 -9 -3 -5 4 -9 16 -9 12 0 18 5 15 10 -3 6 -1 10 4 10 20 0 11 16 -19 34 -17 9 -48 42 -70 72 l-41 54 -64 0 c-39 0 -65 -4 -65 -10z"></path>
            <path id="pWllnaTrk"
                d="M1225 710 c-13 -20 -127 -90 -167 -102 -35 -10 -54 -38 -25 -38 7 0 30 -9 51 -21 21 -11 41 -18 44 -15 3 3 11 1 18 -5 8 -6 24 -9 37 -5 31 7 133 89 118 94 -6 2 -11 10 -11 17 0 7 -7 15 -15 19 -8 3 -15 11 -15 18 -1 22 -27 51 -35 38z"></path>
            <path id="p1FCswWjWG"
                d="M862 578 c7 -19 38 -22 38 -4 0 10 -9 16 -21 16 -12 0 -19 -5 -17 -12z"></path>
            <path id="pOvnYJQ2j"
                d="M938 583 c-24 -6 -23 -23 1 -23 26 0 51 10 51 21 0 9 -22 10 -52 2z"></path>
            <path id="pfHzypvXP"
                d="M889 217 l-26 -22 31 -30 31 -31 32 32 31 31 -36 21 -37 20 -26 -21z"></path>
        </g>
    </g>
    <g id="lqsXRUnkNKhnadQ8tbF0nV" fill="rgb(200,188,163)" style="transform: none;">
        <g>
            <path id="pXZAYGFr"
                d="M457 1180 c-10 -17 -15 -35 -12 -40 7 -11 115 -13 130 -2 17 12 44 59 38 66 -4 3 -36 6 -73 6 -62 0 -67 -1 -83 -30z"></path>
            <path id="pg9aKJiIJ"
                d="M271 1014 c-28 -35 -26 -67 3 -101 l24 -28 204 -3 c226 -4 255 -1 286 29 28 25 29 79 4 102 -34 31 -122 16 -122 -21 0 -15 -11 -16 -127 -10 -71 3 -138 6 -150 7 -18 1 -23 7 -23 26 0 22 -4 25 -39 25 -31 0 -44 -6 -60 -26z"></path>
            <path id="pgbDVWjTd"
                d="M1044 957 c4 -18 15 -41 26 -52 19 -19 36 -20 235 -23 l215 -3 0 24 c0 20 -6 25 -37 31 -21 3 -70 6 -109 6 -49 0 -75 4 -83 14 -15 18 -64 26 -170 31 l-83 3 6 -31z"></path>
            <path id="pyCs65duE"
                d="M440 777 c0 -7 11 -14 25 -15 13 -1 28 -3 32 -4 16 -4 73 14 73 23 0 5 -29 9 -65 9 -46 0 -65 -4 -65 -13z"></path>
            <path id="pCX5p3lIe"
                d="M1268 773 c-8 -10 -25 -33 -37 -51 -22 -32 -22 -34 -6 -67 9 -19 20 -35 25 -35 6 0 10 -7 10 -15 0 -31 31 -13 75 43 28 36 45 67 45 85 0 24 -4 27 -32 27 -17 0 -39 7 -48 15 -15 14 -18 13 -32 -2z"></path>
            <path id="pCG6ue2yN"
                d="M902 229 c-16 -24 -18 -22 32 -37 48 -14 66 -6 34 16 -13 9 -27 22 -31 29 -11 18 -20 16 -35 -8z"></path>
        </g>
    </g>
    <g id="l53tmQWiNDytBpDXjglqUkj" fill="rgb(206,194,174)" style="transform: none;">
        <g>
            <path id="p9ONpTSwQ"
                d="M577 1339 c-50 -43 -143 -182 -132 -199 7 -12 114 -13 134 -1 8 5 -9 8 -45 7 -49 -1 -59 2 -62 17 -3 17 2 19 61 16 l65 -4 49 47 c28 25 64 53 81 62 40 21 41 36 2 36 -36 0 -80 19 -80 36 0 27 -29 20 -73 -17z"></path>
            <path id="p11GDyVtsI"
                d="M1252 1155 c66 -97 61 -105 -62 -104 -48 0 -97 -4 -108 -10 -23 -12 -51 -73 -35 -78 5 -2 26 -12 46 -22 36 -18 36 -18 50 2 11 17 16 18 34 8 12 -6 33 -11 47 -11 30 0 63 -39 43 -52 -6 -4 13 -7 43 -7 30 1 47 3 38 6 -33 9 -18 20 28 20 44 1 49 -10 9 -20 -11 -3 1 -5 28 -6 26 0 47 4 47 9 0 14 28 12 32 -2 6 -17 85 7 97 30 26 48 -37 128 -105 134 -40 3 -41 4 -78 91 -14 32 -21 38 -44 37 -76 -5 -92 -1 -92 25 0 22 -4 25 -34 25 l-35 0 51 -75z"></path>
            <path id="pr3DVVABU"
                d="M499 1050 c-175 -4 -199 -7 -218 -24 -12 -11 -21 -23 -21 -28 0 -11 38 -10 45 2 3 6 14 10 23 10 11 0 13 -3 6 -8 -6 -4 -13 -17 -16 -29 -6 -24 13 -38 30 -21 12 12 125 1 117 -12 -3 -4 2 -10 10 -13 10 -4 12 -1 8 10 -6 14 5 15 97 10 57 -4 105 -9 108 -12 3 -2 11 3 18 13 8 11 9 19 2 23 -6 4 -1 12 12 19 20 11 25 10 35 -4 7 -8 14 -15 16 -13 2 1 -2 -3 -9 -9 -10 -9 -9 -13 4 -18 32 -12 44 -6 44 22 0 40 -25 70 -68 82 -20 5 -39 9 -42 8 -3 -1 -93 -5 -201 -8z"></path>
            <path id="pnVIn5lqU"
                d="M1269 774 c-12 -14 -9 -20 16 -40 22 -17 33 -20 47 -13 17 9 18 7 12 -17 -5 -20 -3 -26 7 -22 19 6 62 85 54 98 -11 17 -121 12 -136 -6z"></path>
        </g>
    </g>
    <g id="l11S9oJXR76hEmBLl7gL6WT" fill="rgb(217,210,192)" style="transform: none;">
        <g>
            <path id="p10QOygSwL"
                d="M793 1456 c-104 -26 -216 -96 -184 -116 8 -4 11 -15 8 -24 -4 -10 -2 -16 6 -15 29 4 42 -2 22 -10 -24 -10 -87 -2 -80 9 3 5 1 11 -4 14 -11 7 -61 -54 -61 -72 0 -7 13 -12 29 -12 24 0 28 4 26 25 -3 24 -2 24 28 11 24 -9 31 -18 29 -34 -5 -33 18 -27 64 17 23 21 50 41 60 44 11 3 39 13 64 22 72 27 219 18 290 -17 71 -35 144 -96 158 -130 7 -20 15 -25 30 -22 21 6 37 -19 25 -39 -15 -24 6 -77 29 -77 6 0 8 9 5 20 -3 11 1 27 9 34 8 8 14 24 14 36 0 13 8 24 20 27 11 3 20 9 20 13 0 19 -83 131 -132 176 -122 115 -304 161 -475 120z"></path>
            <path id="pjCOutz2e"
                d="M1374 1089 c-4 -6 12 -28 35 -49 45 -41 52 -65 21 -75 -25 -8 -26 -24 -2 -27 9 0 24 -2 32 -3 8 -1 23 2 32 7 16 8 16 11 -2 43 -11 19 -15 35 -10 35 19 0 80 -63 80 -82 0 -24 26 -23 39 1 14 26 -4 75 -34 95 -14 9 -45 16 -69 16 -38 0 -48 4 -62 25 -17 26 -48 33 -60 14z"></path>
        </g>
    </g>
</svg>