<svg class="img-fluid" id="outputsvg" xmlns="http://www.w3.org/2000/svg"
  style="transform: none; transform-origin: 50% 50%; cursor: move; max-height: none;" width="178"
  height="169" viewBox="0 0 1780 1690">
  <g id="l4p0qzukDqB0WTJd1pLfZZs" fill="rgb(39,47,66)" style="transform: none;">
    <g>
      <path id="pGOEbp4te"
        d="M793 1379 c-81 -14 -158 -47 -222 -95 -77 -58 -121 -109 -121 -139 0 -22 5 -25 34 -25 19 0 38 -4 41 -10 12 -19 37 -10 82 30 25 22 71 52 102 67 50 24 68 27 161 28 94 0 111 -3 162 -27 32 -15 80 -48 107 -73 69 -64 124 -165 91 -165 -17 0 -11 -36 10 -55 16 -14 29 -16 69 -11 l49 6 -6 -45 -5 -46 99 3 99 3 3 29 c8 71 -26 107 -105 111 -29 1 -50 7 -54 16 -4 8 -23 49 -43 92 -59 130 -181 242 -312 286 -73 24 -172 32 -241 20z"></path>
    </g>
  </g>
  <g id="l5V3kIf5VOHWHy0XG2KVyvK" fill="rgb(48,59,79)" style="transform: none;">
    <g>
      <path id="p1HSjiBwfd"
        d="M517 1238 c-55 -51 -127 -157 -127 -186 0 -11 14 -13 72 -10 58 4 74 9 83 24 13 25 84 96 115 116 14 9 22 19 19 23 -9 9 -88 -47 -89 -62 0 -24 -30 -13 -49 18 l-19 31 29 31 c24 24 40 67 26 67 -2 0 -29 -24 -60 -52z m-17 -73 c0 -8 -4 -15 -10 -15 -5 0 -10 7 -10 15 0 8 5 15 10 15 6 0 10 -7 10 -15z"></path>
      <path id="pscU7JH0R"
        d="M1310 1062 c0 -10 7 -27 15 -38 23 -30 19 -45 -11 -38 -21 5 -25 3 -24 -12 5 -43 1 -48 -20 -29 -11 10 -20 25 -20 34 0 10 -3 12 -8 5 -4 -7 -48 -13 -106 -16 -93 -4 -100 -6 -122 -32 -27 -30 -31 -73 -10 -101 11 -15 30 -19 100 -23 47 -2 86 -8 86 -13 0 -5 66 -9 148 -9 129 0 151 3 180 20 17 11 32 26 32 34 0 12 -16 14 -84 10 l-85 -5 8 28 c10 39 3 61 -21 65 -29 4 -36 28 -9 28 25 0 26 16 5 70 -17 42 -54 57 -54 22z"></path>
      <path id="ploC3vwAp"
        d="M295 963 c-11 -2 -30 -6 -42 -9 -22 -4 -53 -50 -53 -76 1 -33 31 -53 93 -60 34 -4 86 -10 115 -14 36 -4 61 -3 77 6 14 8 38 10 62 6 101 -18 115 -18 123 -5 5 7 26 13 47 13 34 1 38 4 41 30 5 43 -6 74 -32 92 -20 12 -62 16 -218 18 -106 2 -202 1 -213 -1z"></path>
      <path id="ppGrParG0" d="M1495 940 c-8 -13 13 -40 31 -40 17 0 18 22 2 38 -15 15 -25 15 -33 2z"></path>
      <path id="p9kjwdlRb"
        d="M1201 664 c-12 -19 -21 -37 -21 -39 0 -10 81 -55 98 -55 21 0 67 62 78 104 l6 26 -70 0 c-70 0 -70 0 -91 -36z"></path>
    </g>
  </g>
  <g id="l7mozoD5HKUXquveQjzkQiC" fill="rgb(55,66,93)" style="transform: none;">
    <g>
      <path id="pthbca1gn"
        d="M493 1083 c-15 -6 -17 -33 -3 -33 6 0 10 6 10 14 0 8 6 17 13 19 6 3 8 5 2 5 -5 0 -16 -2 -22 -5z"></path>
      <path id="pMTcoCeAg"
        d="M990 888 c-1 -83 37 -103 191 -95 61 3 113 8 117 11 3 4 -2 14 -11 23 -13 13 -19 14 -31 3 -12 -9 -19 -10 -29 -1 -8 6 -49 13 -93 15 -95 5 -110 11 -129 45 l-14 26 -1 -27z"></path>
      <path id="pFhvF0ZDL"
        d="M200 875 c0 -13 11 -37 24 -52 l24 -28 224 -3 c209 -2 225 -1 256 18 38 23 41 37 10 42 -13 2 -23 8 -23 15 0 20 -14 26 -29 14 -8 -7 -21 -9 -27 -5 -7 4 -10 3 -6 -2 9 -15 -19 -45 -37 -38 -9 3 -16 10 -16 14 0 12 -120 2 -146 -11 -17 -9 -34 -7 -73 6 -30 10 -63 14 -80 10 -27 -6 -61 13 -61 34 0 4 -9 7 -20 8 -15 1 -20 -4 -20 -22z"></path>
      <path id="p0DHts1C"
        d="M1071 883 c-1 -16 5 -23 17 -23 10 0 13 3 6 8 -6 4 -14 14 -17 22 -4 10 -6 8 -6 -7z"></path>
      <path id="p13rOs2Olc"
        d="M390 688 c0 -7 9 -28 20 -46 19 -30 24 -33 63 -30 42 3 42 3 45 46 l3 42 -65 0 c-46 0 -66 -4 -66 -12z"></path>
      <path id="p17D20GI6D"
        d="M1168 624 c-43 -47 -46 -64 -17 -105 32 -45 68 -40 118 19 23 26 41 49 41 52 0 3 -19 14 -41 25 -22 10 -46 26 -52 35 -10 13 -17 10 -49 -26z"></path>
    </g>
  </g>
  <g id="l62ryymEThQPT4zlTkWWbAK" fill="rgb(66,80,109)" style="transform: none;">
    <g>
      <path id="pAqbzP3Mp"
        d="M490 676 c0 -34 -12 -38 -54 -21 -20 8 -36 13 -36 9 0 -12 24 -51 62 -101 35 -46 45 -53 74 -53 19 0 34 -4 34 -10 0 -5 20 -10 45 -10 45 0 45 0 45 34 0 28 -6 38 -34 55 -19 12 -49 44 -66 71 -36 56 -70 68 -70 26z"></path>
      <path id="pNjjfvErO"
        d="M1115 579 c-76 -60 -143 -82 -247 -82 -85 1 -88 0 -88 -22 0 -22 5 -24 68 -29 37 -4 92 -11 122 -17 125 -24 137 -23 188 9 85 55 143 130 69 91 -18 -10 -24 -8 -42 15 -14 18 -20 36 -17 52 2 13 3 24 1 23 -2 0 -26 -18 -54 -40z"></path>
      <path id="pjahpHjlM"
        d="M837 134 c-33 -30 -34 -34 -16 -39 11 -4 29 -21 40 -38 10 -18 19 -26 19 -19 0 8 13 26 28 40 l28 27 -31 31 -32 31 -36 -33z"></path>
    </g>
  </g>
  <g id="l4lx0hRz1wLHVxgtYcieDIS" fill="rgb(76,90,124)" style="transform: none;">
    <g>
      <path id="pjdSqZdks"
        d="M592 582 c-9 -6 -5 -15 15 -32 19 -16 23 -25 14 -28 -7 -2 -17 1 -21 7 -8 14 -120 23 -120 10 0 -5 29 -33 65 -62 47 -39 87 -61 147 -83 146 -51 337 -36 451 35 l29 18 -51 -5 c-37 -3 -58 0 -76 12 -14 9 -31 16 -38 14 -18 -3 -57 12 -57 23 0 5 -9 9 -20 9 -11 0 -20 -7 -20 -15 0 -8 -7 -15 -16 -15 -8 0 -22 7 -30 15 -19 18 -44 20 -44 3 0 -9 -3 -10 -8 -2 -4 6 -30 19 -58 28 -28 9 -72 30 -98 46 -53 34 -47 32 -64 22z"></path>
    </g>
  </g>
</svg>