<svg class="img-fluid" id="outputsvg"
    xmlns="http://www.w3.org/2000/svg" style="transform: none; transform-origin: 50% 50%; cursor: move; max-height: 343.36px;" width="512" height="512" viewBox="0 0 5120 5120">
    <g id="l79fT7iguCoozA0mvQYMoAg" fill="rgb(42,56,84)" style="transform: none;">
        <g style="transform: none;">
            <path id="pmeMSjGA9" d="M1825 5046 c-16 -8 -200 -184 -407 -393 -289 -289 -380 -386 -388 -413 -15 -53 -12 -1545 3 -1590 9 -25 23 -40 50 -53 36 -18 38 -18 75 0 26 13 40 28 49 53 9 26 12 225 12 758 l1 722 336 0 336 0 29 29 29 29 0 336 0 336 1403 0 c1078 0 1406 -3 1415 -12 9 -9 12 -278 12 -1148 0 -750 4 -1148 10 -1172 13 -46 43 -68 93 -68 50 0 83 33 92 91 3 24 5 553 3 1174 -3 1129 -3 1130 -24 1175 -26 55 -85 113 -139 137 -38 17 -119 18 -1500 20 -1221 2 -1465 0 -1490 -11z m-65 -526 l0 -200 -200 0 c-110 0 -200 3 -200 7 0 10 383 393 392 393 5 0 8 -90 8 -200z"></path>
            <path id="pF5uNjwAh" d="M1535 3405 c-27 -26 -34 -80 -14 -117 26 -48 24 -48 879 -48 855 0 853 0 879 48 20 37 13 91 -14 117 l-24 25 -841 0 -841 0 -24 -25z"></path>
            <path id="pf231Ue7V" d="M3773 3398 c-17 -18 -83 -100 -147 -181 -129 -165 -136 -184 -88 -238 22 -24 36 -31 66 -31 46 0 69 20 169 150 39 50 76 92 81 92 5 0 109 -99 232 -220 216 -212 225 -220 263 -220 58 0 96 35 96 89 0 39 -6 47 -105 147 -58 58 -185 182 -282 275 -166 159 -179 169 -215 169 -31 0 -45 -7 -70 -32z"></path>
            <path id="pbIeUa18W" d="M1563 2925 c-38 -16 -53 -42 -53 -90 0 -25 8 -43 25 -60 l24 -25 841 0 841 0 24 25 c27 26 34 80 14 117 -26 48 -23 48 -881 48 -660 -1 -809 -3 -835 -15z"></path>
            <path id="pHzk6bCct" d="M583 2555 c-38 -27 -43 -75 -43 -407 l0 -317 -102 -103 c-176 -177 -266 -367 -288 -606 -48 -527 349 -1002 878 -1051 284 -26 555 68 761 263 202 193 302 426 302 705 0 272 -93 492 -288 689 l-103 103 0 317 c0 332 -5 380 -43 407 -45 31 -80 20 -307 -100 -120 -63 -223 -115 -229 -115 -7 0 -110 52 -230 115 -228 120 -263 131 -308 100z m374 -1010 l163 -86 163 86 c102 53 175 85 195 85 37 0 87 -39 96 -75 4 -14 -8 -107 -25 -206 l-31 -180 126 -120 c70 -67 131 -130 137 -141 27 -50 3 -130 -45 -148 -13 -5 -90 -18 -172 -30 -82 -11 -161 -23 -175 -26 -22 -4 -37 -27 -99 -157 -89 -186 -107 -207 -170 -207 -63 0 -79 20 -170 207 -68 142 -76 153 -104 158 -17 3 -102 16 -190 29 -170 26 -188 34 -204 91 -17 59 2 87 139 219 l131 125 -31 180 c-17 99 -29 192 -25 206 9 36 59 75 96 75 20 0 93 -32 195 -85z"></path>
            <path id="phxxE7la8" d="M910 1324 c0 -4 7 -49 16 -101 9 -51 13 -106 9 -121 -3 -15 -39 -57 -83 -99 -53 -49 -72 -73 -62 -77 8 -2 55 -10 103 -16 109 -15 128 -30 182 -139 21 -44 42 -81 45 -81 3 0 24 37 45 81 54 109 73 124 182 139 48 6 95 14 103 16 10 4 -10 28 -62 78 -43 41 -80 85 -84 100 -3 15 1 67 10 115 9 49 16 94 16 100 0 6 -40 -9 -90 -34 -49 -25 -103 -45 -120 -45 -17 0 -71 20 -120 45 -50 25 -90 42 -90 39z"></path>
            <path id="p16cZ4LNe4" d="M2015 2345 c-27 -26 -34 -80 -14 -117 25 -47 41 -48 639 -48 598 0 614 1 639 48 20 37 13 91 -14 117 l-24 25 -601 0 -601 0 -24 -25z"></path>
            <path id="pk4G7n9zl" d="M3773 2338 c-17 -18 -83 -100 -147 -181 -128 -163 -135 -183 -90 -236 21 -26 33 -31 68 -31 48 0 59 9 171 150 37 47 71 87 76 88 5 2 111 -96 235 -217 215 -212 226 -221 264 -221 57 0 95 35 95 89 0 39 -6 47 -115 157 -63 64 -190 187 -282 275 -156 149 -169 159 -205 159 -31 0 -45 -7 -70 -32z"></path>
            <path id="p11LARYiMt" d="M2204 1864 c-57 -28 -70 -93 -28 -143 l26 -31 519 0 520 0 24 25 c27 26 34 80 14 117 -25 46 -47 48 -561 48 -414 0 -487 -3 -514 -16z"></path>
            <path id="p1DFLmn3u3" d="M4823 1585 c-12 -9 -27 -32 -33 -53 -6 -24 -10 -257 -10 -643 0 -494 -2 -609 -13 -618 -10 -8 -398 -11 -1380 -13 l-1366 -3 -28 -21 c-54 -40 -52 -114 4 -151 26 -17 94 -18 1398 -18 1140 0 1377 2 1409 14 53 18 124 86 150 141 20 44 21 60 24 645 2 330 0 620 -3 644 -9 58 -42 91 -92 91 -21 0 -48 -7 -60 -15z"></path>
            <path id="pSBwmYGEY" d="M2446 1310 c-89 -27 -99 -131 -16 -172 31 -16 72 -18 395 -18 217 0 375 4 397 10 46 13 68 43 68 90 0 47 -22 77 -68 90 -45 12 -734 12 -776 0z"></path>
            <path id="pq4pa0lpa" d="M3773 1278 c-34 -37 -225 -276 -249 -314 -37 -56 13 -134 86 -134 42 0 56 12 170 157 36 46 70 83 75 83 6 0 73 -63 150 -141 77 -77 179 -176 227 -220 74 -67 93 -79 122 -79 53 0 91 37 91 89 0 39 -6 47 -135 177 -74 75 -201 198 -282 275 -137 129 -150 139 -185 139 -31 0 -45 -7 -70 -32z"></path>
            <path id="pdsWjKl2p" d="M2402 805 c-61 -27 -73 -115 -21 -157 19 -17 56 -18 441 -18 l419 0 24 25 c27 26 34 80 14 117 -24 45 -54 48 -461 48 -309 -1 -389 -4 -416 -15z"></path>
        </g>
    </g>
    <g id="l2RlKSbBt8sjFW8dx50KOBB" fill="rgb(93,209,253)" style="transform: none;">
        <g style="transform: none;">
            <path id="p1CTbAqYy7" d="M2273 4466 l-28 -24 -3 -284 c-3 -275 -2 -285 18 -311 12 -14 38 -31 58 -37 52 -14 2053 -14 2105 1 68 19 72 32 75 304 4 276 0 318 -33 351 l-24 24 -1070 0 -1070 0 -28 -24z"></path>
        </g>
    </g>
    <g id="l4A1xddI2dcZZD5Z8YzbFa9" fill="rgb(255,138,147)" style="transform: none;">
        <g style="transform: none;">
            <path id="pRiUlbKBx" d="M4823 2225 c-31 -22 -43 -75 -43 -195 0 -164 22 -210 100 -210 78 0 100 46 100 210 0 164 -22 210 -100 210 -20 0 -45 -7 -57 -15z"></path>
        </g>
    </g>
</svg>